<svg xmlns="http://www.w3.org/2000/svg" width="329.2" height="216.3"><path fill="#5B646C" d="M203.7 82.2c-1.6-.7-.7-7.9-.6-9.2.4-6.6 1.7-13.2 3.3-19.6 1.6-6.2 3.6-12.3 6.2-18.1.9-1.9 1.8-3.8 2.9-5.7.5-.9 1.3-2.5 2.3-2.9-.5.2-.2 0-.1.8.1.6.1 1.2.1 1.9 0 2.3-.3 4.6-.6 6.8-.9 6.3-2.3 12.6-3.9 18.8-1.5 6.1-3.3 12.1-5.5 18-.4 1-2.9 9.1-4.5 9-1.2-.1-1.2 1.7 0 1.8 2.5.2 4.2-5.1 4.8-6.7 2.9-7 5-14.3 6.9-21.7 1.9-7.3 3.5-14.8 4.4-22.3.2-1.6 1.3-7.7-1.2-8.4-2.5-.7-4.7 4.5-5.5 6-3.3 6.2-5.6 13-7.5 19.7-2.1 7.5-3.5 15.3-4 23.2-.1 2-1.1 8.9 1.6 10 1 .7 1.9-.9.9-1.4z"/><path fill="#5B646C" d="M213 23.8c-3.4 4.5-5.8 9.9-7.9 15.1-5.5 13.8-7.6 28.8-7.2 43.6l1.2-.9-20.4-5.2c-4.2-1.1-8.4-2.2-12.7-3.3l-3.1-.8c-.9-.2.4 1.2 0 0-2.5-7.2-3.2-15-2.7-22.5.5-6.5 2.3-12.9 5.2-18.8 1.7-3.3 3.8-6.4 6.2-9.2.8-1 5.1-6 5.6-5.9l36.3 9.3c1.2.3 1.6-1.5.5-1.8l-20.4-5.2c-4.2-1.1-8.4-2.2-12.7-3.2l-3.1-.8c-1.6-.4-2.5 1.2-3.6 2.2-15.2 14.2-19.7 36.9-13.2 56.4.5 1.5 1.4 1.5 2.8 1.8 4.2 1.1 8.4 2.1 12.5 3.2l22.1 5.7c.6.1 1.2-.3 1.2-.9-.4-14.5 1.7-28.9 6.9-42.5 2-5.3 4.5-10.7 8-15.2.8-1.1-.8-2-1.5-1.1z"/><path fill="#5B646C" d="M206.2 18.9c-4.2 5.5-7.2 12-9.7 18.4-5.8 14.6-8 30.5-6.8 46.2.1 1 .7.3.7-.4-1.2-15.7 1.3-31.4 7.2-46 2.4-5.8 5.2-11.8 9.1-16.9.1-.3-.1-1.7-.5-1.3z"/><path fill="#5B646C" d="M203.2 18.2c-4.1 5.5-7.2 12-9.7 18.4-5.8 14.6-8 30.5-6.8 46.2.1 1 .7.3.7-.4-1.2-15.7 1.3-31.4 7.2-46 2.4-5.8 5.2-11.8 9-16.9.2-.3 0-1.8-.4-1.3z"/><path fill="#5B646C" d="M200.2 17.4c-4.2 5.5-7.2 12-9.7 18.4-5.8 14.6-8 30.5-6.8 46.2.1 1 .7.3.7-.4-1.2-15.7 1.3-31.4 7.2-46 2.4-5.8 5.2-11.8 9.1-16.9.1-.3-.1-1.8-.5-1.3z"/><path fill="#5B646C" d="M205.9 71.6c-.1 0 0-1.3.1-1.6.1-1.5.4-2.9.6-4.4.7-4 1.6-8 2.6-12 1-3.9 2.1-7.8 3.5-11.6.4-1.2.9-2.5 1.4-3.7.2-.6.5-1.7 1.1-2.1-.3.2-.3-.2-.3.4l-.1 1.2c-.2 1.4-.5 2.9-.8 4.3-.8 4-1.8 8-2.8 12s-2.1 7.9-3.3 11.8c-.4 1.3-.8 2.5-1.3 3.7-.1.3-.7 1.9-.8 1.9-.4 0-.4.6 0 .6 1 0 1.6-2.9 1.8-3.5 1.3-3.8 2.4-7.6 3.4-11.5 1.2-4.5 2.3-9 3.3-13.6.5-2.3 1.2-4.9 1.2-7.3 0-1.2-.9-.5-1.2.1-1.3 2.3-2.1 5-2.9 7.6-2.6 7.9-4.7 16.2-5.8 24.5-.1.6-.7 3.2.1 3.6.3.3.6-.2.2-.4z"/><path fill="#5B646C" d="M170.6 46.3c-.2 0-.5 0-.7-.1-1.5-.4-2.4-1.9-2-3.4s1.9-2.4 3.4-2 2.4 1.9 2 3.4c-.3 1.3-1.5 2.1-2.7 2.1zm0-4.6c-.8 0-1.5.6-1.8 1.4-.2 1 .3 2 1.3 2.2s2-.4 2.2-1.3c.2-1-.3-2-1.3-2.2-.1-.1-.3-.1-.4-.1z"/><path fill="#5B646C" d="M162.2 35.5l-58.8-15.1c-.5-.1-1 .2-1.1.6-.8 3-1.6 6.1-2.3 9.1-.1.5.2 1 .6 1.1l58.8 15.1c1.2.3 1.6-1.5.5-1.8l-58.8-15.1c.2.4.4.8.6 1.1.8-3 1.6-6.1 2.3-9.1-.4.2-.8.4-1.1.6l58.8 15.1c1.1.5 1.6-1.3.5-1.6z"/><path fill="#5B646C" d="M161.2 39.3l-54.8-14.1c0 .9-.2 2.4-1.1 3.5l-.7-.7c1.1-1.3.9-3.4.8-3.4l-.1-.7.7.2 55.5 14.3-.3.9z"/><path fill="#5B646C" stroke="#ED1C24" stroke-miterlimit="10" d="M103.7 21.4"/><path fill="#5B646C" d="M88.8 5.5l13.6 3.5c.3.1-.5-1.1-.2 0 .2 1 .3 2 .4 3 .3 4.7-.6 9.4-1.7 14-1.1 4.4-2.7 8.8-5.1 12.7-.5.8-1.1 1.5-1.7 2.2-.8.8.6.2.2.1l-13.6-3.5c-1.2-.3-1.6 1.5-.5 1.8 2.4.6 4.8 1.2 7.2 1.9 2.1.5 4.7 1.7 6.9 1.7 1.1 0 2.3-2.1 2.8-2.9 2.8-4 4.3-8.9 5.6-13.5 1.2-4.7 2-9.6 1.8-14.4-.1-1.1 0-3.6-.9-4.5-.4-.4-1.3-.5-1.9-.6l-4.6-1.2-7.8-2c-1.2-.4-1.7 1.4-.5 1.7z"/><path fill="#5B646C" d="M84 38.4l-13.6-3.5c-.3-.1.5 1.1.2 0-.2-1-.3-2-.4-3-.3-4.7.6-9.4 1.7-14 1.1-4.4 2.7-8.8 5.1-12.7.5-.8 1.1-1.5 1.7-2.2.8-.8-.6-.2-.2-.1l13.6 3.5c1.2.3 1.6-1.5.5-1.8-2.4-.6-4.8-1.2-7.2-1.9-2-.5-4.7-1.7-6.8-1.7-1.1 0-2.3 2.1-2.8 2.9-2.8 4-4.3 8.9-5.6 13.5-1.2 4.7-2 9.6-1.8 14.4 0 1.1 0 3.6.9 4.5.4.4 1.3.5 1.9.6l4.6 1.2 7.8 2c1.1.3 1.6-1.4.4-1.7z"/><path fill="#5B646C" d="M86.2 31.4c-.8 0-1.5-.1-2.3-.3-4.9-1.3-7.9-6.3-6.6-11.2 1.1-4.1 4.7-6.9 8.9-6.9.8 0 1.5.1 2.3.3 4.9 1.3 7.9 6.3 6.6 11.2-1.1 4-4.7 6.9-8.9 6.9zm-.1-17.5c-3.8 0-7 2.5-8 6.2-1.1 4.4 1.5 8.9 5.9 10 .7.2 1.4.3 2.1.3 3.8 0 7-2.5 8-6.2 1.1-4.4-1.5-8.9-5.9-10-.7-.2-1.4-.3-2.1-.3z"/><rect x="81.8" y="32.5" transform="matrix(-.969 -.249 .249 -.969 154.021 90.835)" fill="#5B646C" width="2" height="6.3"/><rect x="88.7" y="5.2" transform="matrix(-.969 -.249 .249 -.969 174.523 39.094)" fill="#5B646C" width="2" height="6.6"/><g fill="#5B646C"><path d="M69.1 34l-2.8-.7s-.1-.3 0-1c.2-.7.4-.9.4-.9l2.5.6"/><path d="M68.8 35l-3.2-.8-.2-.4c-.1-.2-.2-.7 0-1.6.2-.9.6-1.3.8-1.4l.4-.3 2.9.8-.5 1.7.3.1-.5 1.9z"/></g><path fill="#5B646C" d="M100.2 22.5c.8-5.8-2.7-11.1-8.1-13-.4-.1-.5.5-.2.6 5.2 1.8 8.4 7 7.7 12.2-.1.5.5.6.6.2z"/><path fill="#5B646C" d="M72.9 23.9c-.7 4.5 2.7 8.3 6.5 10 .4.2.7-.4.3-.5-3.5-1.6-7-5.1-6.3-9.4.2-.3-.4-.4-.5-.1z"/><path fill="#5B646C" d="M103 7.9l2.2 1.4c.1.1.3.2.4.2l-.1-.1.2.8c.8 3.7.5 7.6-.4 11.2-.1.4.5.5.6.2.9-3.7 1.2-7.6.5-11.3-.1-.3-.1-1.1-.4-1.3-.9-.5-1.8-1.1-2.6-1.6-.4-.3-.7.3-.4.5z"/><path fill="#5B646C" d="M94.2 42.8c1 0 2-.1 3.1-.1.4 0 .8-.7 1-.9 2.5-2.9 4.1-6.5 5.1-10.2.1-.4-.5-.5-.6-.2-.9 3.5-2.5 6.9-4.8 9.7-.2.3-.4.5-.7.8-.3.3-.1.2-.2.2l-3 .1c-.3 0-.3.7.1.6z"/><path fill="#5B646C" d="M105.6 12.8l2.8.7s.3-.2.5-.9v-1l-2.8-.7s-.3.3-.4.9c-.2.7-.1 1-.1 1zm3 1.9l-3.8-1-.1-.6c0-.1-.1-.7.1-1.5s.6-1.2.6-1.3l.4-.4 3.8 1 .2.4c.1.2.3.8.1 1.7-.2 1-.7 1.3-.9 1.5l-.4.2z"/><path fill="#5B646C" d="M98.4 40.9l2.8.7s.3-.2.5-.9v-1l-2.8-.7s-.3.3-.4.9c-.2.6-.1 1-.1 1zm3 1.8l-3.8-1-.1-.6c0-.1-.1-.7.1-1.5s.6-1.2.6-1.3l.4-.4 3.8 1 .2.4c.1.2.3.8.1 1.7-.2 1-.7 1.3-.9 1.5l-.4.2z"/><g fill="#5B646C"><path d="M76.6 4.8l-2.8-.7s-.1-.3 0-1c.2-.7.4-.9.4-.9l2.5.6"/><path d="M76.3 5.8l-3.2-.8-.2-.4c-.1-.2-.2-.7 0-1.6s.6-1.3.8-1.4l.4-.3 2.9.6-.5 1.9.3.1-.5 1.9z"/></g><path fill="#5B646C" d="M26.5 189.5c-2 2-1.7-4.4-1.7-5.3.1-2.6.4-5.2 1-7.7.3-1.2 1.7-6.9 3.2-4.9.9 1.1 2.4-.4 1.5-1.5-7.5-9.6-11.8 30.2-2.5 21.1 1-1.1-.5-2.7-1.5-1.7z"/><path fill="#5B646C" d="M25.7 190.3c-2.6-.4-5.1-.8-7.7-1.3-.3 0 .6.8-.1-.3-.4-.6-.9-1.3-1.4-1.9-1.1-1.4-2.3-2.5-3.9-3.1l.8 1c-.2-1.7-.1-3.4.1-5.1.2-2.1.8-4.2 1.5-6.3.3-.8-.4-.4.7-.9l1.6-.7c1.1-.6 2.1-1.3 3.1-2.1.2-.2-.4-.3.4-.2l1.6.2 5.7.7c1.4.2 1.4-2 0-2.2l-6.3-.8c-2.9-.4-3.7 1.6-6.3 2.8-.5.3-1.6.5-2 1.1-1 1.7-1.4 4.1-1.8 6.1-.5 2.4-.7 4.9-.4 7.3.1.5.3.8.8 1 1.9.7 3.2 2.8 4.2 4.4.3.5.6.8 1.2.9 2.6.4 5.1.8 7.7 1.3 1.3.4 1.9-1.7.5-1.9z"/><path fill="#5B646C" d="M11.7 183.8c-4.3-.5-9.5-1.2-9.6-6.7-.1-6.9 8.1-5.1 12.2-4.5 1.4.2 1.4-2 0-2.2-2.6-.3-5.4-1.1-8.1-.7-3.2.5-6 3.3-6.2 6.5-.3 3.4 1.1 6.1 3.9 8 2.1 1.4 5.3 1.4 7.7 1.7 1.5.2 1.5-1.9.1-2.1z"/><path fill="#5B646C" d="M16.1 171.6l9.6-16.9 2.3-4.1.6-1.1c.5-.9.1.1-.6 0 3.1.3 6.2.5 9.2.8l-1.1-1.1-.7 6.1-.5 5.1c-.1 1.6-1.2 1.1-2.7 1-5.3-.1-5.3 3-6.2 7.4-.3 1.4 1.8 1.9 2.1.6.3-1.3.3-5 1.8-5.6 1.8-.7 4.8.7 6.4-.7 1.4-1.3 1-5.1 1.1-6.9.2-2.3.5-4.7.8-7 .1-.6-.5-1-1.1-1.1l-9.3-.8c-.4 0-.8.2-.9.5l-12.9 22.5c-.4 1.5 1.4 2.6 2.1 1.3z"/><path fill="#5B646C" d="M30.5 169.8c.1-1.2.3-2.4.7-3.5.4-.8 1.5-.8 2.3-.9 1.2-.1 2.4-.2 3.6-.6 1.3-.4.8-2.5-.6-2.1-2 .6-5.7-.1-7 2-.9 1.5-1.2 3.4-1.3 5.1 0 1.4 2.2 1.4 2.3 0z"/><path fill="#5B646C" d="M38.7 164.6c-2.1-5.8-.4-12.8 1.5-18.4l-1 .8 43.2 5.6-1-.8c.8 2.3 1 4.7.9 7.1 0 3-.9 6-2.2 8.7-.5 1.1 0 1.6-.9 1.5l-13.2-1.7c-9.5-1.2-18.9-2.4-28.4-3.7-1.4-.2-1.4 2 0 2.2l42.1 5.4c.4 0 .7-.2.9-.5 3.7-5.7 5-13.1 2.8-19.6-.2-.5-.5-.7-1-.8l-43.2-5.6c-.5-.1-.9.4-1 .8-2.1 5.9-3.8 13.4-1.5 19.5.4 1.4 2.4.9 2-.5z"/><path fill="#5B646C" d="M81.5 152.4c-2.6 4.7-3.9 9.9-3.8 15.3 0 .5.7.5.7 0-.1-5.2 1.1-10.3 3.7-14.9.3-.4-.3-.8-.6-.4z"/><path fill="#5B646C" d="M139 193.7c2.5.5 2.5 4-.2 4.1-1.2 0-1.9-1-2-2.1 0-1.3 1.3-2 2.4-1.9 1.4.1 1.4-2.1 0-2.2-2.2-.2-4.1 1.3-4.5 3.5-.4 2.3 1.2 4.4 3.4 4.8 2.3.4 4.4-1.2 4.8-3.4.4-2.3-1.2-4.4-3.4-4.8-1.3-.3-1.8 1.7-.5 2z"/><path fill="#5B646C" d="M139.5 190.3c6.7 1.2 6.2 10.8-.7 11-3.1.1-5.3-2.8-5.4-5.6-.1-3.5 3.2-5.6 6.4-5.3 1.4.1 1.4-2.1 0-2.2-4.2-.3-7.7 2.4-8.4 6.5-.8 4.2 2.4 8 6.4 8.7 4.2.8 8-2.4 8.7-6.5.8-4.2-2.4-8-6.4-8.7-1.4-.2-2 1.9-.6 2.1z"/><path fill="#5B646C" d="M132.7 198.2l-12.3-1.6 1.1 1.1c-.1-2.9.3-5.8 1.1-8.6l-1 .8 12.3 1.6c1.4.2 1.4-2 0-2.2l-12.3-1.6c-.5-.1-.9.4-1 .8-.8 3-1.3 6.1-1.2 9.1 0 .6.5 1 1.1 1.1l12.3 1.6c1.3.3 1.3-1.9-.1-2.1z"/><path fill="#5B646C" d="M119.4 198.6c-.3 2.1-.7 4.2-1.5 6.1-.5 1.2.1.5-.9.3l1.1 1.1c0-4.9.7-9.9 1.3-14.8.4-3.4.9-6.8 1.7-10.1l.4-1.5c.2-.5-1.1.4.5.6l-1-.8c.5 2.7.2 5.7-.1 8.4-.2 1.4 2 1.4 2.2 0 .3-3 .6-6 .1-9-.1-.5-.6-.7-1-.8l-1.4-.2c-.3 0-.8.2-.9.5-1.5 3.5-1.8 7.8-2.3 11.4-.7 5.3-1.5 10.7-1.5 16.1 0 .6.5 1 1.1 1.1 3.8.5 4.1-5.3 4.5-8 0-1.2-2.1-1.7-2.3-.4z"/><path fill="#5B646C" d="M27.8 191.3c1.9.2 3.8.5 5.6.7.8.1 1.1-.8 1-1.4-.5-2.7-.1-5.7.2-8.4.3-3.2.7-7.1 2.2-10 .4-.8-.1-1.5-.9-1.6l-5.8-.7c-1.4-.2-1.4 2 0 2.2l5.8.7-.9-1.6c-1.5 2.8-1.9 6.3-2.3 9.5-.5 3.4-.9 7.2-.3 10.6l1-1.4c-1.9-.2-3.8-.5-5.6-.7-1.4-.3-1.4 1.9 0 2.1z"/><path fill="#5B646C" d="M37.3 171.2c.9-2.5 1-2.5 3.1-2.2l4 .5c1.1.1 1.5-1.5.5-2-4.9-2.5-6.5 8.8-6.9 10.9-.7 4.1-2.6 15.3 2.3 18.2.2-.7.4-1.3.5-2l-3.4-.4-1.9-.3c.5.1-.8-1.6-1-2.6-.3-1.4-2.4-.8-2.1.6 1 4.8 4.3 4.3 8.4 4.8 1.1.1 1.4-1.5.5-2-2.7-1.6-1.9-9.5-1.7-12.2.1-1 2-14.3 4.1-13.2.2-.7.4-1.3.5-2-4.7-.6-7.4-1.9-9.2 3.3-.3 1.4 1.8 1.9 2.3.6z"/><path fill="#5B646C" d="M7.4 175.4c2.6.5 2.6 4.2-.2 4.3-1.2 0-2-1.1-2.1-2.2 0-1.4 1.3-2.2 2.6-2.1 1.4.1 1.4-2.1 0-2.2-2.3-.2-4.2 1.3-4.7 3.6-.4 2.3 1.3 4.5 3.5 4.9 2.3.4 4.5-1.3 4.9-3.5.4-2.3-1.3-4.5-3.5-4.9-1.3-.2-1.9 1.9-.5 2.1z"/><path fill="#5B646C" d="M40.9 197.1c.9.9 2.1 1.4 3.3 1.5 2.7.3 4.6-2.5 5.6-4.6.6-1.3-1.3-2.4-1.9-1.1-.7 1.4-1.8 3.8-3.8 3.5-.7-.1-1.3-.5-1.7-.9-1-.9-2.5.6-1.5 1.6z"/><path fill="#5B646C" d="M44.4 193.7c1.7.2 3.4.4 5 .7 1.4.2 1.4-2 0-2.2-1.7-.2-3.4-.4-5-.7-1.3-.1-1.3 2 0 2.2z"/><path fill="#5B646C" d="M53.2 174.4l6.7.9c1.4.2 1.4-2 0-2.2l-6.7-.9c-1.3-.2-1.3 2 0 2.2z"/><path fill="#5B646C" d="M64.4 175.8l6.7.9c1.4.2 1.4-2 0-2.2l-6.7-.9c-1.4-.1-1.4 2 0 2.2z"/><path fill="#5B646C" d="M75.5 178.2l7.1.9-1.1-1.1c.3 6.1-.6 12.5-2.7 18.3l1-.8-3.6-.5c-1.4-.2-1.4 2 0 2.2l3.6.5c.5.1.9-.4 1-.8 2.2-5.9 3.1-12.5 2.8-18.8 0-.6-.5-1-1.1-1.1l-7.1-.9c-1.3-.2-1.3 1.9.1 2.1z"/><path fill="#5B646C" d="M71.8 194.5l-7.2-.9c-1.4-.2-1.4 2 0 2.2l7.2.9c1.3.1 1.3-2 0-2.2z"/><path fill="#5B646C" d="M60.2 193.2l-6.6-.9c-1.4-.2-1.4 2 0 2.2l6.6.9c1.4.2 1.4-2 0-2.2z"/><path fill="#5B646C" d="M81.6 192.1l1 .1c.6.1 1.1-.6 1.1-1.1l.3-5.9c0-.4-.2-.7-.5-.9l-.5-.3c-1.2-.7-2.3 1.1-1.1 1.9l.5.3c-.2-.3-.4-.6-.5-.9l-.3 5.9 1.1-1.1-1-.1c-1.5-.3-1.5 1.9-.1 2.1z"/><path fill="#5B646C" d="M86.6 192.7c2.5.3 5 .6 7.6 1 1.4.2 1.4-2 0-2.2-2.5-.3-5-.7-7.6-1-1.3-.1-1.3 2 0 2.2z"/><path fill="#5B646C" d="M86.4 186.9c2.5.3 5 .6 7.4 1 1.4.2 1.4-2 0-2.2-2.5-.3-5-.6-7.4-1-1.3-.2-1.3 2 0 2.2z"/><path fill="#5B646C" d="M97.9 194.2l7.6 1c1.4.2 1.4-2 0-2.2l-7.6-1c-1.4-.2-1.4 2 0 2.2z"/><path fill="#5B646C" d="M105.6 187c-2.5-.3-5-.6-7.4-1-1.4-.2-1.4 2 0 2.2 2.5.3 5 .6 7.4 1 1.4.2 1.3-2 0-2.2z"/><path fill="#5B646C" d="M46.3 192.6c-2.1 1.5-2.1-4.2-2.1-5.1 0-2.8.3-5.6.8-8.3.2-1.2.5-2.3.8-3.5.1-.5.3-1.1.5-1.6.6-1.8 0 .1-.3-.7.5 1.3 2.6.7 2.1-.6-1.1-2.8-3-1.5-3.8.7-1.4 3.7-1.8 8.1-2.1 12.1-.1 2.3.3 12.4 5.3 8.9 1.1-.8 0-2.7-1.2-1.9z"/><path fill="#5B646C" d="M48.8 172.2c.3-2.5-.8-5.2-3.3-5.9-1.3-.4-1.9 1.7-.6 2.1 1.6.5 1.9 2.3 1.7 3.8-.1 1.4 2.1 1.4 2.2 0z"/><path fill="#5B646C" d="M54.8 174.3c.5-2.4-.3-7.5-4-6.1-4.3 1.6-3.6 10.4-3.6 14-.1 4.6-.2 14 4.6 16.7 3.9 2.2 7-.8 8.4-4.4.5-1.3-1.6-1.8-2.1-.6-1.6 3.9-5.3 4.9-7.3.2-1.3-3.1-1.4-6.7-1.5-10-.1-3.5.1-6.9.6-10.4.1-.8 1.5-5.8 2.7-2.6.3.7.1 1.8 0 2.5-.2 1.5 1.9 2 2.2.7z"/><path fill="#5B646C" d="M54.8 193.5c-.4.5-.4-.5-.5-.8-.4-1.4-.6-2.9-.8-4.4-.7-5.5-.3-11 .7-16.4.2-1.4-1.8-1.9-2.1-.6-1.2 6.8-1.5 13.7-.2 20.6.5 2.4 2.3 6.2 4.7 2.7.8-1.1-1.1-2.2-1.8-1.1z"/><path fill="#5B646C" d="M65.5 175.6c.5-2.5-.4-7.5-4.1-5.9-1.7.7-2 3.1-2.2 4.6-.4 3.4-.5 6.8-.6 10.2-.1 4.7.1 12.3 4 15.8 3.7 3.3 6.9-1 8.4-4.2.6-1.3-1.3-2.4-1.9-1.1-.9 2-2.8 5.9-5.3 3.5-2.5-2.4-2.8-7.8-3-11-.2-3 .1-6 .3-9 .1-1.9.2-3.7.6-5.5.4-2 1.9-.3 1.9.9 0 .4 0 .8-.1 1.2-.4 1.3 1.7 1.9 2 .5z"/><path fill="#5B646C" d="M81.8 191.4c-.4 2-1 3.9-1.9 5.7-1.9 3.8-5.7 4.6-7.1.1-1.7-5-.7-10.6-.4-15.7.1-1.7.2-3.4.4-5 .1-.9.3-1.7.5-2.6.6-2.4 1.3 2.2 1.2 2.9-.3 4.3-.8 8.6-.7 13 .1 2.5.4 12.5 4.9 8.2 1-1-.5-2.5-1.5-1.5-.4.4-1-4.4-1.1-5.1-.3-2.4-.2-4.9-.1-7.3.1-2.9 2.4-10.8-.8-12.8-5.5-3.4-5 11-5.2 13.3-.4 4.9-1.4 15.1 4.2 17.7 5.8 2.7 9-6.3 9.8-10.4.2-1.3-1.9-1.9-2.2-.5z"/><path fill="#5B646C" d="M83.5 178c.1-1 .4-1.9.9-2.8 1-2 1.5.8 1.5 1.1.1 1.1 0 2.2-.1 3.3-.3 4.9-.9 9.9-.8 14.8 0 1.4.1 5.2 2.2 5.3 3.1 0 3.6-4.5 4.2-6.7.4-1.3-1.7-1.9-2.1-.6-.4 1.3-1.7 6.9-2.1 2.8-.2-2.3-.1-4.6 0-6.9.2-4.2 1.4-8.8.7-12.9-.3-1.7-1.6-3.4-3.5-2.8-2 .5-2.7 3.1-2.9 4.9-.3 1.3 1.8 1.9 2 .5z"/><path fill="#5B646C" d="M93.2 186.5c.2-1.4.5-2.9.8-4.3.2-1 .4-2 .7-3 .4-1.6 2.2-4.1 2.4-.7.2 4.9-.3 9.8-.4 14.6 0 2.1-.5 5.8 1.2 7.5 2.6 2.6 4.1-5.8 4.2-6.4.3-1.4-1.8-1.9-2.1-.6-.3 1.4-.6 2.8-1.1 4.1-.4 1.3.3 1.5 0 0-.4-1.7-.2-3.7-.2-5.5 0-4.9.5-9.9.3-14.9-.1-3-3.7-5-5.4-1.9-1.7 3-2.1 6.9-2.6 10.3-.1 1.6 1.9 2.2 2.2.8z"/><path fill="#5B646C" d="M103.9 187.9c.5-2.9 1.1-6 2.3-8.7.8-1.8 1.7-1 1.9.8.1 1.1 0 2.3 0 3.4v2.6c0 3.8.1 7.5.2 11.3.1 1.9-.3 5.5 1.2 7.1.4.4.9.4 1.3.2 2-.9 2.2-7.5 2.5-9.2.3-1.4-1.8-1.9-2.1-.6-.2.9-.6 7.5-1.5 7.9l1.3.2c-.7-.8-.5-3.2-.5-4.2-.1-2.4-.2-4.9-.2-7.3-.1-3.8.1-7.6-.1-11.4-.1-3-2.4-6.5-5.2-3.1-2.2 2.7-2.7 7.1-3.3 10.5-.1 1.3 2 1.9 2.2.5z"/><path fill="#5B646C" d="M115.9 205.7c-1.1 1-.9-4.4-.9-5.1.1-3.1.3-6.2.6-9.3l.7-8.2c.1-.6.1-1.2.2-1.7v-.7c.1-1.3 1.8-1.3 2 0 .3 1.4 2.3.8 2.1-.6-.6-3.4-5.4-3.6-6.2-.2-.7 2.9-.7 6.6-1 9.8-.4 4.8-1 9.8-.7 14.7.1 2.7 2.1 5.4 4.6 2.9 1.2-1.1-.4-2.6-1.4-1.6z"/><path fill="#5B646C" d="M114.7 188.2l-5.4-.7c-1.4-.2-1.4 2 0 2.2l5.4.7c1.3.1 1.3-2 0-2.2z"/><path fill="#5B646C" d="M65.4 194.8c-.5 1.3.2.2 0-.9-.4-1.9-.4-4-.6-6-.3-4-.4-8.1.4-12 .3-1.4-1.8-1.9-2.1-.6-1.2 5.9-.8 12.4.1 18.4.2 1.1.4 4.3 2.4 3.9 1.1-.2 1.6-1.3 1.9-2.2.4-1.3-1.6-1.9-2.1-.6z"/><path fill="#5B646C" d="M81.7 192.3c0 3.4-.1 9.5 3.3 11.4 1.8 1 4.1.1 5.6-1.1 2.7-2.2 3.6-6.6 4.4-9.8.3-1.4-1.8-1.9-2.1-.6-.7 2.8-1.4 6-3.3 8.3-.9 1.1-3.1 2.2-4.2.7-1.6-2.3-1.6-6.2-1.5-8.9-.1-1.4-2.2-1.4-2.2 0z"/><path fill="#5B646C" d="M93.1 193c-.1 3.7 0 8.8 2.5 11.7 1.6 1.8 4.2 1 5.8-.3 2.7-2.3 3.6-6.9 4.5-10.1.4-1.3-1.7-1.9-2.1-.6-.8 2.8-1.5 5.7-3.1 8.2-.7 1-1.7 1.9-3 1.6-.8-.2-1.2-1.5-1.5-2.2-.9-2.6-1-5.6-.9-8.4 0-1.3-2.2-1.3-2.2.1z"/><path fill="#5B646C" d="M104.6 180.3c-.1 3.7-.1 7.5 0 11.2.1 4.4-.4 10.1 1.6 14.1 1.2 2.4 5.1 2.4 6.5.3 1.9-2.9 2-7.1 2.6-10.4.1-.8-.3-1.3-1-1.4l-4.8-.6c-1.4-.2-1.4 2 0 2.2l4.8.6-1-1.4c-.4 2.4-.8 4.7-1.3 7.1-.4 2.1-3 4.9-4.1 1.7-.7-1.9-.6-4.2-.7-6.1-.5-5.7-.4-11.6-.3-17.3-.1-1.4-2.3-1.4-2.3 0z"/><path fill="#5B646C" d="M114 189.4l.7-4.4c.2-.9.9-5.2 1.6-5.4 1.4-.3.8-2.4-.6-2.1-1.9.4-2.4 3.7-2.7 5.2-.5 2-.8 4-1.1 6.1-.2 1.3 1.9 1.9 2.1.6z"/><path fill="#5B646C" stroke="#ED1C24" stroke-miterlimit="10" d="M94.3 186.7"/><path fill="#5B646C" d="M21.7 189.4l.3.1c-.2-.3-.3-.9-.3-1.3-.4-3 .1-6.1.5-9.1.2-1.4-2-1.4-2.2 0-.4 3.4-1 7-.3 10.4.2.7.6 1.8 1.4 2 1.4.3 1.9-1.8.6-2.1z"/><path fill="#5B646C" d="M78.5 153.3c-12.6-1.6-25.2-3.2-37.7-4.9-.5-.1-.5.7 0 .7 12.6 1.6 25.2 3.2 37.7 4.9.4.1.4-.6 0-.7z"/><path fill="#5B646C" d="M77.7 154.5c-12.6-1.6-25.2-3.2-37.7-4.9-.5-.1-.5.7 0 .7 12.6 1.6 25.2 3.2 37.7 4.9.5 0 .5-.7 0-.7z"/><path fill="#5B646C" d="M222.7 130l-101.5 21.8-3.6.8c-1.4.3-.8 2.4.6 2.1l101.5-21.8 3.6-.8c1.4-.3.8-2.4-.6-2.1z"/><path fill="#5B646C" d="M225.3 138.8c-.8-.4-1.4-.8-2.3-.9l-3.9-.2c.1.2.1.4.2.7l5.6-2.9c.3-.2.2-.7-.2-.7l-4.5.3c.1.2.2.4.3.5.9-1.4 1.9-2.8 2.8-4.3.3-.4-.4-.7-.6-.4-.9 1.4-1.9 2.8-2.8 4.3-.1.2 0 .6.3.5l4.5-.3c-.1-.2-.1-.4-.2-.7l-5.6 2.9c-.3.2-.2.7.2.7l3.4.2c1.1.1 1.4.2 2.5.8.3.3.7-.3.3-.5z"/><path fill="#5B646C" d="M120.8 164.4l101.2-23.4c1.2-.3 2.4-.6 3.6-.8 1.4-.3.8-2.4-.6-2.1l-101.2 23.4c-1.2.3-2.4.6-3.6.8-1.3.4-.8 2.4.6 2.1z"/><line x1="220.1" y1="135.5" x2="126.3" y2="156.3" fill="none"/><path fill="#5B646C" d="M220 135.1l-46.7 10.4c-15.7 3.5-31.4 7-47.1 10.4-.5.1-.3.8.2.7l46.7-10.4c15.7-3.5 31.4-7 47.1-10.4.4-.1.2-.8-.2-.7z"/><line x1="126.7" y1="158.7" x2="219.1" y2="138" fill="none"/><path fill="#5B646C" d="M126.8 159l47.1-10.5c15.1-3.4 30.2-6.8 45.3-10.1.5-.1.3-.8-.2-.7l-47.1 10.5c-15.1 3.4-30.2 6.8-45.3 10.1-.5.1-.3.8.2.7z"/><path fill="#5B646C" d="M225.8 140.1l13-7.3c1-.6.5-2-.5-2-5.1-.3-10.2-.6-15.3-.8-1.4-.1-1.4 2.1 0 2.2 5.1.3 10.2.6 15.3.8-.2-.7-.4-1.3-.5-2l-13 7.3c-1.3.6-.2 2.5 1 1.8z"/><line x1="224.6" y1="135.2" x2="235.6" y2="132.5" fill="none"/><path fill="#5B646C" d="M224.7 135.5c3.7-.9 7.3-1.8 11-2.6.5-.1.3-.8-.2-.7-3.7.9-7.3 1.8-11 2.6-.4.1-.2.8.2.7z"/><polygon fill="#5B646C" points="232.8,131.6 227.7,134.3 233.8,134.4 238.3,131.8"/><path fill="#5B646C" d="M122.1 163.7c1.9-4.2.5-8.7-3.4-11.1-1.2-.7-2.3 1.1-1.1 1.9 3 1.9 3.8 5.5 2.6 8.2-.5 1.2 1.4 2.3 1.9 1z"/><path fill="#5B646C" d="M114.8 159.5c.5 2.2 2.5 6.1 5.4 5.1 2.9-.9 3.2-4.4 2.7-7-.4-2.2-2.6-6-5.4-5.1-2.9 1-3.1 4.4-2.7 7 .2 1.4 2.3.8 2.1-.6-.2-1.1-.4-4.1 1.3-4.3 1.6-.2 2.4 2.6 2.7 3.6.3 1.1.4 4.1-1.3 4.3-1.6.2-2.4-2.6-2.7-3.6-.3-1.3-2.4-.7-2.1.6z"/><path fill="#5B646C" d="M125.3 161.7l-.9-.4c.1-.2 1.6-4-2.1-8.3l.8-.7c4.1 4.8 2.3 9.2 2.2 9.4z"/><path fill="#5B646C" d="M126.8 161.7l-.9-.3c.1-.2 1.6-4.5-1.9-8.5l.8-.7c3.7 4.6 2 9.3 2 9.5z"/><path fill="#5B646C" stroke="#ED1C24" stroke-miterlimit="10" d="M235.3 129.1"/><path fill="#5B646C" d="M22.4 78.5c-8-.7-13.9-7.7-13.2-15.6.7-8 7.7-13.9 15.6-13.2 2.9.2 5.6 1.3 7.9 3.1 3.8 3 5.8 7.7 5.4 12.5-.7 7.9-7.7 13.8-15.7 13.2zm2.3-26.5c-6.6-.6-12.5 4.4-13 11-.6 6.6 4.4 12.5 11 13 6.6.6 12.5-4.4 13-11 .3-4-1.3-7.9-4.5-10.4-1.9-1.5-4.1-2.4-6.5-2.6z"/><path fill="#5B646C" d="M132.9 89.5c-.6 0-1.2-.1-1.8-.2-4.9-.9-8.8-4.5-11.4-10.2-1.9-4.2-2.4-8.1-2.4-8.3v-.2c.6-6.8 3.6-18 17.2-16.8 6.9.6 13.7 4.2 14.5 5.3.2.3.3.7.2 1.1-.6 2.2-3.5 2.3-6.4 2.5-3.8.2-6.8.6-7.4 2.8-1 3.7-.4 8.5 1.3 11.3.5.8 1.3 1.8 2.5 2.1.2.1.5.1.8.1 2 .2 4.7-.4 6.9-.9 1.8-.4 3.3-.7 4.3-.6 1.4.1 1.7 1 1.8 1.4.1.6-.1 1.2-1.3 2.6-3.3 3.1-10.6 8.7-18.8 8zm-13.2-19c.2 1.4 2.4 14.5 11.9 16.3.5.1 1 .2 1.5.2 7.4.6 14-4.7 16.4-7.3-.7.1-1.5.3-2.3.5-2.3.5-5.3 1.1-7.6.9-.4 0-.7-.1-1.1-.2-1.6-.3-2.9-1.4-4-3.1-2-3.3-2.7-8.9-1.6-13.2 1.1-4.1 5.8-4.4 9.6-4.6 1-.1 2.6-.2 3.5-.4-2-1.1-6.8-3.3-11.8-3.7-8.7-.6-13.6 4.3-14.5 14.6z"/><path fill="#5B646C" d="M35 59l.2-2.4 73.3 6.1c.1 0 8.4.8 15.2-6.1l.8 1.6c-6.3 8.1-15.7 6.9-16.2 6.8l-73.3-6z"/><path fill="#5B646C" d="M123.8 84.4c-3.9-5.4-12.5-5.6-12.5-5.6h-.1l-63.4-5.3c-9.4-.8-13.3-1-13.3-1l.2-2.4s3.9.3 13.3 1l63.3 5.3c.8 0 7.7-.4 12.2 5.7l.3 2.3z"/><path fill="#5B646C" d="M27.4 73.4l-9.5-.8-4.2-5.5.7-8.2 6.2-4.7 8.1.7 4.6 5.8-.6 7.7-5.3 5zm-8.2-3l7.4.6 3.9-3.7.5-5.8-3.4-4.2-6.2-.5-4.7 3.5-.5 6.2 3 3.9z"/><path fill="#5B646C" d="M46.9 68.7c17.7 1.5 35.3 3 53 4.4l19.4 1.6c.5 0 .5-.7 0-.7-17.7-1.5-35.3-3-53-4.4l-19.4-1.6c-.4 0-.4.7 0 .7z"/><path fill="#5B646C" d="M141.6 83.9c-3.7-.2-6.6-1.4-8.6-3.7-3.5-4.1-3-9.9-3-10.2l1 .1c0 .1-.5 5.7 2.7 9.4 1.8 2.1 4.5 3.2 7.9 3.4v1z"/><path fill="#5B646C" d="M88.7 137.1c-10.2.4-18.8-7-19.7-17.2-.8-10.2 7.3-18.9 17.2-19.7 10.2-.8 18.9 7.3 19.7 17.2.9 10.2-7.2 18.9-17.2 19.7-1.9.2-1.9 3.2 0 3 11.8-1 20.7-10.7 20.3-22.7-.5-11.8-11.1-20.7-22.7-20.3-11.8.5-20.7 11.1-20.3 22.7.5 11.8 11.1 20.7 22.7 20.3 2-.1 2-3.1 0-3z"/><circle fill="#5B646C" cx="87.5" cy="118.6" r="2.6"/><path fill="#5B646C" d="M87.7 120.3c-2.2 0-2.5-3.2-.3-3.4 2.2-.2 2.5 3.2.3 3.4-1.1.1-1.2 1.9 0 1.8 2-.2 3.4-1.7 3.3-3.7 0-2-1.8-3.4-3.7-3.3-2 0-3.4 1.8-3.3 3.7 0 2 1.8 3.4 3.7 3.3 1.2 0 1.2-1.8 0-1.8z"/><path fill="#5B646C" d="M107.1 116.9c-2.1.1-4.1.2-6.2.4-.8 0-.8 1.2 0 1.2 2.1-.1 4.1-.2 6.2-.4.8-.1.8-1.3 0-1.2z"/><path fill="#5B646C" d="M97.2 124.1l-5.6-3.8-3.1-2.1c-.8-.6 0 1.1-.1-.5l-.9-14.9c-.1-1.2-1.9-1.2-1.8 0l.9 15.4c.1 1.6 2 2.3 3.2 3.1l6.5 4.5c.9.6 1.8-1 .9-1.7z"/><path fill="#5B646C" d="M87.2 118.4l-10.7-13c-.2-.3-.7.1-.4.4l10.7 13c.2.4.6-.1.4-.4z"/><path fill="#5B646C" d="M91.6 138.9l.2 2.7.3-.3-3.1.2.3.3-.2-3.2c0-.4-.6-.4-.6 0l.2 3.2c0 .2.1.3.3.3l3.1-.2c.2 0 .3-.1.3-.3l-.2-2.7c0-.4-.6-.4-.6 0z"/><path fill="#5B646C" d="M76.6 99.8c-5.5 2.4-11 4.9-16.6 7.3-.3.1-.5.5-.4.8l.1 2.3c0 .5.4.9.9.9l2.3-.1-.9-.9c.2 3.6.4 7.2.7 10.8.1 1.2 1.9 1.2 1.8 0-.2-3.6-.4-7.2-.7-10.8 0-.5-.4-.9-.9-.9l-2.3.1.9.9c0-.4 0-.8-.1-1.1-.1-1.2.2-.7-.5-.4l1-.4c1.9-.8 3.8-1.7 5.6-2.5l9.9-4.4c1.2-.5.3-2.1-.8-1.6z"/><path fill="#5B646C" d="M79.5 136.5l-17.3-5.3c.2.3.4.6.7.9l-.1-2.3-.9.9 2.3-.1c.5 0 .9-.4.9-.9-.2-3.6-.4-7.2-.7-10.8-.1-1.2-1.9-1.2-1.8 0 .2 3.6.4 7.2.7 10.8l.9-.9-2.3.1c-.5 0-.9.4-.9.9l.1 2.3c0 .4.3.7.7.9l17.3 5.3c1.1.3 1.6-1.5.4-1.8z"/><path fill="#5B646C" d="M98.4 137.7c5.5-2.4 11-4.9 16.6-7.3.3-.1.5-.5.4-.8l-.1-2.3c0-.5-.4-.9-.9-.9l-2.3.1.9.9c-.2-3.6-.4-7.2-.7-10.8-.1-1.2-1.9-1.2-1.8 0 .2 3.6.4 7.2.7 10.8 0 .5.4.9.9.9l2.3-.1-.9-.9c0 .4 0 .8.1 1.1.1 1.2-.2.7.5.4l-1 .4c-1.9.8-3.8 1.7-5.6 2.5l-9.9 4.4c-1.1.6-.2 2.1.8 1.6z"/><path fill="#5B646C" d="M95.5 101.1l17.3 5.3c-.2-.3-.4-.6-.7-.9l.1 2.3.9-.9-2.3.1c-.5 0-.9.4-.9.9.2 3.6.4 7.2.7 10.8.1 1.2 1.9 1.2 1.8 0-.2-3.6-.4-7.2-.7-10.8l-.9.9 2.3-.1c.5 0 .9-.4.9-.9l-.1-2.3c0-.4-.3-.7-.7-.9l-17.3-5.3c-1-.3-1.5 1.4-.4 1.8z"/><path fill="#5B646C" stroke="#ED1C24" stroke-width="2" stroke-miterlimit="10" d="M113.8 107.1"/><path fill="#5B646C" d="M60.3 107c-15.8 3.9-31.9 7.9-48.1 9.4-.5 0-.9.4-.9.9l.8 12.7c0 .5.4.9.9.9 7.3.1 14.6.2 21.9.4 5.5.1 11 .3 16.4.6 3.4.2 7.2.1 10.5 1 1.1.3 1.6-1.4.5-1.7-3-.8-6.3-.8-9.4-1-5.6-.3-11.2-.5-16.8-.7-7.7-.2-15.4-.4-23.1-.5l.9.9-.8-12.7-.9.9c16.4-1.5 32.7-5.5 48.6-9.5 1.1-.1.6-1.8-.5-1.6z"/><path fill="#5B646C" stroke="#ED1C24" stroke-width="2" stroke-miterlimit="10" d="M5.4 113.5"/><path fill="#5B646C" d="M4.2 133.2c-1.2 0-2.2-1.2-2.3-3l-.7-11.7c-.1-1.8.8-3.1 2-3.2l7.6-.5c1.2 0 2.2 1.2 2.3 3l.7 11.7c.1 1-.2 2-.7 2.6-.4.4-.8.6-1.3.6l-7.6.5zm-.7-15.9c-.1.1-.3.5-.2 1.1l.7 11.7c0 .6.3 1 .4 1.1l7.3-.4c.1-.1.3-.5.2-1.1l-.7-11.7c0-.6-.3-1-.4-1.1l-7.3.4z"/><path fill="#5B646C" d="M11.9 122.8c-1.6.1-3.2.2-4.7.3-1.2.1-1.2 1.9 0 1.8 1.6-.1 3.2-.2 4.7-.3 1.2 0 1.2-1.8 0-1.8z"/><path fill="#5B646C" d="M114.2 130.4c17.5-4 35.4-8.1 53.4-9.7.5 0 .9-.4.9-.9l-.8-12.7c0-.5-.4-.9-.9-.9-8.2 0-16.4-.1-24.6-.3-6.1-.1-12.2-.3-18.3-.5-3.6-.2-7.6 0-11.2-.9-1.1-.3-1.6 1.5-.5 1.7 3.4.9 7.1.8 10.6 1 6.2.3 12.5.4 18.7.6 8.4.2 16.8.3 25.2.3l-.9-.9.8 12.7.9-.9c-18.1 1.6-36.2 5.7-53.9 9.8-1 .1-.5 1.9.6 1.6z"/><g fill="#5B646C"><circle cx="162.6" cy="113.8" r="1.1"/><path d="M162.6 115.3c-.8 0-1.5-.6-1.5-1.5-.1-.9.6-1.6 1.5-1.6s1.6.6 1.6 1.5c0 .8-.7 1.6-1.6 1.6zm0-2.1c-.3 0-.6.3-.6.6s.3.5.5.5c.3 0 .5-.3.5-.6.1-.2-.1-.5-.4-.5z"/></g><g fill="#5B646C"><circle cx="157.8" cy="114.1" r="1.1"/><path d="M157.8 115.6c-.8 0-1.5-.6-1.5-1.5-.1-.9.6-1.6 1.5-1.6s1.6.6 1.6 1.5c0 .4-.1.8-.4 1.1-.3.3-.7.5-1.2.5zm0-2.1c-.3 0-.6.3-.6.6s.3.5.5.5c.1 0 .3-.1.4-.2.1-.1.1-.3.1-.4.1-.3-.1-.5-.4-.5z"/></g><g fill="#5B646C"><circle cx="152.4" cy="114.4" r="1.1"/><path d="M152.4 116c-.8 0-1.5-.6-1.5-1.5 0-.4.1-.8.4-1.1.3-.3.7-.5 1.1-.5.9 0 1.6.6 1.6 1.5 0 .4-.1.8-.4 1.1-.3.2-.7.4-1.2.5zm0-2.2c-.2 0-.3.1-.4.2s-.1.3-.1.4c0 .3.3.5.5.5.1 0 .3-.1.4-.2.1-.1.1-.3.1-.4 0-.2-.2-.5-.5-.5z"/></g><path fill="#5B646C" d="M112.3 125.9l5.6-.3c.4 0 .4-.7 0-.7l-5.6.3c-.4 0-.4.7 0 .7z"/><path fill="#5B646C" d="M112.4 123.6l7.6-.1c.4 0 .4-.7 0-.7l-7.6.1c-.5.1-.5.8 0 .7z"/><path fill="#5B646C" d="M113.8 121.4c.9-.1 1.8-.1 2.7-.1.4 0 .4-.7 0-.7l-2.7.1c-.4.1-.4.8 0 .7z"/><path fill="#5B646C" d="M63.4 122.2l-4.5.3c-.4 0-.4.7 0 .7l4.5-.3c.5 0 .5-.7 0-.7z"/><path fill="#5B646C" d="M62.9 119.4l-5.1.1c-.4 0-.4.7 0 .7l5.1-.1c.5 0 .5-.7 0-.7z"/><path fill="#5B646C" d="M63.7 116.7c-1.1 0-2.3 0-3.4.1-.4 0-.4.7 0 .7 1.1 0 2.3 0 3.4-.1.4 0 .4-.7 0-.7z"/><path fill="#5B646C" d="M62.5 114.1l-3.9-1c-.4-.1-.6.6-.2.7l3.9 1c.4 0 .6-.6.2-.7z"/><path fill="#5B646C" d="M112.4 110.5h2.7c.4 0 .4-.7 0-.7h-2.7c-.5 0-.5.7 0 .7z"/><path fill="#5B646C" d="M112.3 112.8h5.6c.4 0 .4-.7 0-.7h-5.6c-.4 0-.4.7 0 .7z"/><path fill="#5B646C" d="M236.6 175.4c4.6-1.3 9.3-2.3 14.1-3.2 2.4-.5 5.8-1.7 8.2-1.2 4.9 1 9.1 5.4 14.1 5.8 5.6.4 11.9-6.4 9.3-11.9-.3-.7-.7-1.4-1.3-2 .4.4.2 0-.3-.8-1.2-2-3.3-3.7-5-5.3.9.8 2.1-5 2.1-5.5.2-1.3.1-2.6-.1-3.9-.4-2.6-2.2-4.6-4.2-6-4.8-3.4-11.9-3.4-15.9 1.1-1.5 1.7-1.6 4.7-2.6 6.8-.3.7-1.3 2.7-1.4 2.9-1.6 2.8-6.6 4.3-9.3 5.3-4.4 1.6-8.9 2.7-13.4 4-5.3 1.5-10.6 3.1-16.1 3.7-3.9.4-5.9.1-8.6-1.7-2.7-1.8-4.4-4.6-7.7-5.3-4.1-.9-7.9 1.2-10.6 4.1-6.3 6.9-2.3 14.1 4.3 19l-.5-1.2c-.6 2.2-1.3 4.4-1.5 6.7 0 .4-.1.8 0 1.2.2 1.1.2-.1.1.1-.2.8-.2 1.6-.1 2.5.8 5.8 9.7 8.9 14.1 5.4 4.2-3.3 5.3-9.6 9.7-12.7 2.4-1.7 6.3-2.5 9-3.5 4.6-1.7 9.1-3.1 13.6-4.4 1.3-.4.8-2.5-.6-2.1-6.9 1.9-13.6 4.2-20.3 6.9-4.4 1.8-6.4 5.3-8.9 9.2-.9 1.4-1.8 2.9-2.9 4.1-3.1 3.3-9.9 1.2-11.2-2.8-1-3 .5-7.3 1.3-10.1.1-.5-.1-.9-.5-1.2-3.7-2.7-7.6-6.4-6.3-11.4.9-3.7 4.6-6.9 8.2-7.7 3.8-.9 5.3 1.7 7.9 3.7 1.2.9 3.1 2 3.9 2.6 1.5 1.2 4.3 1 6.1.9 6.7-.3 13.3-2.5 19.7-4.3s13.1-3.3 18.9-6.7c1.5-.9 3.3-2 4-3.7.4-1 1.6-3.4 2.3-5 .4-1.1.4-2.5 1-3.6 1.1-2 3.9-2.9 5.9-3.2 3.2-.4 7.1 1.3 9.3 3.7 3.1 3.4 1.2 8.9-.3 12.5-.1.3 0 .8.3 1.1 2.3 2.1 4.1 4.3 5.8 6.8 2.7 3.9-2.3 9.5-6.3 9.6-1.9.1-4.2-1.3-5.9-2.2-3.6-1.7-7.3-4.2-11.4-3.5-6.9 1.2-13.7 2.5-20.4 4.4-1.5.3-1 2.4.4 2z"/><path fill="#5B646C" d="M198.9 197.4c-3.9 0-6.7-1.2-8.4-3.5-3.2-4.4-1.4-11.3-.9-13-5.8-4.8-4.9-10-4.8-10.2l1 .2c0 .2-.9 5 4.7 9.4l.3.2-.1.3c0 .1-2.6 7.9.7 12.4 1.6 2.1 4.3 3.2 8 3.1v1c-.2.1-.4.1-.5.1z"/><path fill="#5B646C" d="M210.7 187.3l-.9-.5c.1-.2 3.6-6.2 46.3-15 .4-.1 9.8-1.7 18.3 3.4l-.5.9c-8.2-5-17.5-3.3-17.5-3.3-41.8 8.5-45.6 14.2-45.7 14.5z"/><path fill="#5B646C" d="M193.6 181.9c.6-.8 1.1-1.8 1.5-2.7.2-.5.2-1.2-.4-1.5-.5-.3-1.2-.1-1.5.4-.4.9-.9 1.9-1.5 2.7-.4.5-.1 1.2.4 1.5.6.3 1.1.1 1.5-.4z"/><path fill="#5B646C" d="M273.8 157.4l-.8 1.8c-.2.5.2 1.2.8 1.3.6.2 1.1-.2 1.3-.8l.8-1.8c.2-.5-.2-1.2-.8-1.3-.6-.1-1.1.2-1.3.8z"/><path fill="#5B646C" d="M195.2 189.8c1.2 1.3 2.4 2.5 3.7 3.8.3.3.8-.2.5-.5-1.2-1.3-2.4-2.5-3.7-3.8-.4-.3-.9.2-.5.5z"/><path fill="#5B646C" d="M196.8 193.5l3.5-1.2c.4-.1.2-.8-.2-.7l-3.5 1.2c-.4.1-.2.8.2.7z"/><path fill="#5B646C" d="M270.3 170.1l7.7.9c.5.1.5-.7 0-.7l-7.7-.9c-.5 0-.5.7 0 .7z"/><path fill="#5B646C" d="M271.2 169.1l3.9 3.9c.3.3.8-.2.5-.5l-3.9-3.9c-.3-.3-.8.2-.5.5z"/><path fill="#5B646C" d="M272.9 172.5c1.7-1.1 3.5-2.2 5.2-3.4.4-.3 0-.9-.4-.6-1.7 1.1-3.5 2.2-5.2 3.4-.4.3 0 .9.4.6z"/><path fill="#5B646C" d="M27.4 87.3l-6.5-.5-5 3.3-.6 5.8 3.4 3.8 7.6.6 4.3-3.6.5-5.4-3.7-4zm-4.2 10c-2.4 0-4.4-1.7-4.4-3.8 0-2.1 2-3.8 4.4-3.8s4.4 1.7 4.4 3.8c-.1 2.1-2 3.8-4.4 3.8z"/><path fill="#5B646C" d="M15.3 94.9c0 1-.4 2.6.2 3.5.8 1.2 1.5 2.7 2.5 3.7.5.5 2.8.4 3.5.4l5.3.6c.7.1 2.1-1.7 2.6-2.2.6-.5 2.1-1.4 2.1-2.3l.3-5.3c.1-1.6-.2-1.7-1.4-2.8-.3-.3-.8.2-.5.5.4.4.8.8 1.3 1.2l-.1.1v.9c-.1 1.6-.2 3.3-.2 4.9l-.2.5c-.6.5-1.1 1-1.7 1.6l-1.8 1.7c-.5.5-.1.3-.5.3l-8.2-.9c.4 0 .3.2 0-.2-.2-.3-.4-.6-.7-1-.5-.7-1-1.4-1.4-2.1-.7-.5-.4-2-.4-3.1 0-.5-.7-.5-.7 0z"/><rect x="18" y="98.4" fill="#5B646C" width="1" height="3.2"/><rect x="26.1" y="98.1" fill="#5B646C" width="1" height="4.6"/><path fill="#5B646C" stroke="#ED1C24" stroke-miterlimit="10" d="M20.6 96.8"/><path fill="#5B646C" d="M20.6 96.2c-.9-1.1-.8-2.6.2-3.7 1.9-2.1 5.2-1.6 6.6.7.3.4.9 0 .6-.4-1.7-2.6-5.1-3.2-7.4-1.1-1.5 1.4-1.8 3.3-.5 5 .3.3.8-.2.5-.5z"/><path fill="#5B646C" d="M165.2 167.5l-5.8-.3-6.4 5.8-.5 6.3 4 4.6 6.2.2 5.5-4.9 1.2-6.7-4.2-5zm-1.2 11.3c-1.9 1.9-4.9 2.1-6.6.6-1.7-1.7-1.6-4.6.3-6.6 1.9-1.9 4.9-2.1 6.6-.6 1.7 1.7 1.6 4.5-.3 6.6z"/><path fill="#5B646C" d="M166 168.3c-.8-.8-1.8-2.4-2.9-2.6-1.6-.3-3.4-.9-5.1-.9-.9 0-2.5 1.9-3.1 2.5-1.6 1.2-3.1 2.5-4.6 3.8-.7.6-.3 3.1-.3 3.8 0 .9-.6 2.8.1 3.5l4.1 4.4c1.2 1.4 1.5 1.1 3.4 1.1.6 0 .6-.8 0-.8-1.8 0-1.6.3-2.8-.9l-3.7-4.1-.2-.6.1-2.6c0-.9.1-1.8.1-2.8v-.7c0 .3-.1.2.1 0l7.2-6c-.3.2-.3.1.1.2l1.4.2 2.8.6c.9.1 1.9 1.5 2.8 2.4.4.4.9-.2.5-.5z"/><rect x="157.5" y="166.4" transform="matrix(-.715 -.7 .7 -.715 156.442 397.721)" fill="#5B646C" width="3.6" height="1.1"/><rect x="149.9" y="172.4" transform="matrix(-.714 -.7 .7 -.714 140.266 403.209)" fill="#5B646C" width="5.2" height="1.1"/><path fill="#5B646C" stroke="#ED1C24" stroke-miterlimit="10" d="M160.3 171.1"/><path fill="#5B646C" d="M160.7 171.5c1.7.2 2.8 1.6 2.8 3.3 0 3.2-2.8 5.3-5.8 4.6-.6-.1-.7.7-.2.8 3.5.7 6.2-1.5 6.8-5 .3-2.4-1.2-4.3-3.6-4.6-.5.2-.5.9 0 .9z"/><rect x="241.1" y="121.6" transform="matrix(-.279 -.96 .96 -.279 200.253 394.576)" fill="#5B646C" width="14.2" height="1"/><rect x="242" y="108.7" transform="matrix(-.242 -.97 .97 -.242 196.379 371.904)" fill="#5B646C" width="2.8" height="1"/><path fill="#5B646C" d="M247.6 117l23.2-42.9c.3-.5.2-1.2-.4-1.5l-30-13.2c-.5-.2-1.2-.2-1.5.4-8.1 14.2-16.2 28.4-24.2 42.6-.3.5-.2 1.2.4 1.5l31.1 13.5c1.3.5 2.4-1.3 1.1-1.9l-31.1-13.5.4 1.5c8.1-14.2 16.2-28.4 24.2-42.6l-1.5.4 30 13.2-.4-1.5-23.2 42.9c-.6 1.2 1.2 2.3 1.9 1.1z"/><path fill="#5B646C" d="M214.6 103.3l.9 5.6c.3 1.6.2 4.4 1 5.8.4.7 1.6.9 2.2 1.2l5.9 2.7 25.1 11.4c.5.2 1.2.2 1.5-.4l16.1-30.2 3.8-7.2c.4-.7 1.5-2.1 1.4-2.9l-1.5-15.4c-.1-1.4-2.3-1.4-2.2 0 .5 5.1 1 10.2 1.5 15.2 0-.2.2-.5-.2.2l-1.1 2.1-3.9 7.4-15.8 29.7 1.5-.4c-7.8-3.5-15.6-7.1-23.3-10.6l-9.4-4.3c.7.3.4.6.2-.6l-.6-3.6-1-6.3c-.3-1.4-2.4-.8-2.1.6z"/><path fill="#5B646C" d="M243.2 108.8l-8.2-3.6 7.9-14.2-5.1-2.3-7.8 14-8.6-3.7 20.1-36.3 8 3.6-9.3 17.3 5.5 2.4 9.1-17.5 7.7 3.3-19.3 37zm-6.8-4l6.3 2.8 18.4-35.2-5.9-2.5-9.1 17.5-7.3-3.3 9.3-17.3-6.1-2.8-19.1 34.5 6.7 2.9 7.8-14 7 3.2-8 14.2z"/><polygon fill="#5B646C" points="230.5,105.3 221.5,101.4 221.7,98.7 222.7,98.8 222.5,100.7 230.1,104 238.1,89.5 243,91.9 242.5,92.8 238.5,90.8"/><polygon fill="#5B646C" points="241.4,84.7 240.5,84.3 249.1,68.6 248.5,66.5 249.5,66.3 250.2,68.7"/><polygon fill="#5B646C" points="244,111.3 235.2,107.4 235.1,105.3 236.1,105.3 236.1,106.8 243.5,110 261.9,74.4 261.5,72.3 262.5,72.1 262.9,74.5 262.9,74.7"/><rect x="228.8" y="102.9" transform="matrix(-.232 -.973 .973 -.232 182.908 351.154)" fill="#5B646C" width="2.5" height="1"/><rect x="236.7" y="88.8" transform="matrix(-.264 -.965 .965 -.264 214.505 342.372)" fill="#5B646C" width="2.3" height="1"/><path fill="#5B646C" d="M227.7 46.7l13.3-23.8h-.7l1.9 2.8c.2.2.2-.5 0 0-.1.2-.2.5-.5.7l-3.9 6.8-6.8 12.3c-.1.1-.1.3 0 .5 0 0 0 .1.1.1.1.1.2.2.3.2l14-1.8 7.6-1 .9-.1c.5-.1.2.1 0-.2l2 2.9c.1-.2.2-.5.3-.6l-15.6 1.9-9.4 1.1c-.7.1-1.5.2-2.2.2h-.1c.5 0 .2.1-.1-.5-.5-.7-.8-1.4-1.2-1.9-.2-.5-1 0-.7.5l1.6 2.7c.1.1.2.2.3.2l27.3-3.3c.2 0 .6-.3.3-.6l-2-3.1c-.1-.1-.2-.2-.3-.2l-22.9 3.1c.6-.1.1.8.5.3l.3-.6c.5-.8.9-1.6 1.2-2.3 1.2-2.3 2.5-4.5 3.9-6.8l5.8-10.2c.1-.1.1-.3 0-.5l-2-3.1c-.1-.2-.6-.2-.7 0l-13.3 23.8c-.1.6.6.9.8.5z"/><path fill="#5B646C" d="M226.6 47.2l.3 4.9c0 .8 1.2 2.3 2 2.5.6.1 1.4-.1 1.9-.2l5.2-.7c6.9-.9 13.8-1.8 20.8-2.7.2 0 .5-.1.5-.5l-.5-4.6c0-.6-.9-.6-.8 0l.5 4.6.5-.5-19 2.5-8.5 1.1c-.5.1.1.2-.5-.3-.3-.3-.7-.7-1-1.1-.3-.3-.1.2-.1-.2l-.3-4.9c-.3-.4-1.1-.4-1 .1z"/><path fill="#5B646C" d="M242.2 25.7c.1 1.8.2 3.6.3 5.5 0 .6.1.2-.2.8l-1.2 2.4-5.7 10.8c-.2.5.5.9.7.5 1.9-3.6 3.9-7.4 5.9-11 .3-.7 1.5-2 1.5-2.9-.1-1.9-.2-3.9-.3-5.9-.2-.8-1-.8-1-.2z"/><path fill="#5B646C" d="M286.5 14.8l-13 23.9h.7l-1.9-2.8c-.2-.2-.2.5 0 0 .1-.2.2-.5.5-.7 1.2-2.3 2.5-4.5 3.7-6.9l6.8-12.3c.1-.1.1-.3 0-.5v-.1c-.1-.1-.2-.2-.5-.2l-14 1.9-7.6 1-.9.1c-.6.1-.1-.1.1.2l-2-2.9c-.1.2-.2.5-.3.6l15.6-2 9.4-1.2c.7-.1 1.5-.2 2.2-.2h.1c-.5 0-.2-.1.1.5.5.7.8 1.4 1.2 1.9.2.5 1 0 .7-.5-.6-.9-1.1-1.8-1.6-2.6-.1-.1-.2-.2-.3-.2l-27.3 3.5c-.2 0-.6.3-.3.6.7 1 1.4 2 2 2.9.1.1.2.2.5.2 7.6-1 15.2-2.2 22.9-3.2-.7.1-.2-.8-.5-.3l-.3.6c-.5.8-.9 1.6-1.2 2.3l-3.7 6.8-5.7 10.3c-.1.1-.1.3 0 .5.7 1 1.4 2 2 2.9.1.2.6.3.7 0l13-23.9c-.1-.3-.9-.6-1.1-.2z"/><path fill="#5B646C" d="M287.3 14.7c.6 0 .6-.8 0-.8-.4 0-.4.8 0 .8z"/><path fill="#5B646C" d="M287.8 14.3l-.3-4.9c0-.8-1.4-2.5-2.2-2.5-2.3 0-4.8.7-7 1-6.9 1-13.8 1.9-20.8 2.9-.1 0-.3.2-.3.3l.5 4.6c0 .6.9.6.8 0l-.2-2.4-.3-1.3v-.6c-.1-.6.1 0-.3 0l2.7-.3c4.4-.6 8.8-1.2 13.1-1.8l11.2-1.6.7-.1c-.6.1 0 .2.3.7.2.2.9 1.1.9.8l.3 5.2c.1.5.9.5.9 0z"/><path fill="#5B646C" d="M272.2 35.9c-.1-1.8-.2-3.6-.5-5.5 0-.6-.1-.2.2-.8l1.2-2.4 5.5-10.8c.2-.5-.5-.9-.7-.5l-5.8 11.1c-.3.7-1.5 2-1.4 2.9.1 1.9.3 3.9.5 5.9.3.7 1 .7 1 .1z"/><path fill="#5B646C" d="M162.8 96.3c-3.1 0-5.7-2.6-5.7-5.7s2.6-5.7 5.7-5.7 5.7 2.6 5.7 5.7-2.6 5.7-5.7 5.7zm0-10.4c-2.6 0-4.7 2.1-4.7 4.7s2.1 4.7 4.7 4.7 4.7-2.1 4.7-4.7-2.1-4.7-4.7-4.7z"/><path fill="#5B646C" d="M163.3 93.3v-5.4c0-.6-1-.6-1 0v5.4c0 .7 1 .7 1 0z"/><path fill="#5B646C" d="M160.3 91.1h5.2c.6 0 .6-1 0-1h-5.2c-.7 0-.7 1 0 1z"/><path fill="#5B646C" d="M125 17.6c-2.1 0-2.3-1.9-2.4-3.7l.5-.2h-.5c-.1-1-.1-1.9.1-2.6.3-.9 1-1.4 2-1.4l34.7-2.4c2.5-.2 2.6 2 2.7 3.8.1 1.2.2 2.6-.5 3.4-.4.4-.9.7-1.6.7l-34.7 2.4h-.3zm34.6-9.2h-.2l-34.7 2.4c-.8.1-1 .4-1.1.7-.2.5-.1 1.3-.1 2.2v.2c.1 2.1.3 2.9 1.6 2.8l34.7-2.4c.5 0 .8-.2 1-.4.4-.5.4-1.4.3-2.7-.1-2.1-.4-2.8-1.5-2.8z"/><path fill="#5B646C" d="M128.2 8.2l3.5 10.2c.2.6 1.2.3 1-.3l-3.5-10.2c-.2-.5-1.2-.3-1 .3z"/><path fill="#5B646C" d="M131 8l3.5 10.2c.2.6 1.2.3 1-.3l-3.5-10.2c-.2-.5-1.2-.3-1 .3z"/><path fill="#5B646C" d="M133.8 7.8l3.5 10.2c.2.6 1.2.3 1-.3l-3.5-10.2c-.3-.5-1.2-.3-1 .3z"/><path fill="#5B646C" d="M136.6 7.7l3.5 10.2c.2.6 1.2.3 1-.3l-3.5-10.2c-.3-.6-1.2-.4-1 .3z"/><path fill="#5B646C" d="M139.3 7.5l3.5 10.2c.2.6 1.2.3 1-.3l-3.5-10.2c-.2-.6-1.2-.3-1 .3z"/><path fill="#5B646C" d="M142.1 7.3l3.5 10.2c.2.6 1.2.3 1-.3l-3.5-10.2c-.2-.6-1.2-.3-1 .3z"/><path fill="#5B646C" d="M144.9 7.1l3.5 10.2c.2.6 1.2.3 1-.3l-3.5-10.2c-.2-.6-1.2-.3-1 .3z"/><path fill="#5B646C" d="M147.7 6.9l3.5 10.2c.2.6 1.2.3 1-.3l-3.5-10.2c-.3-.6-1.2-.3-1 .3z"/><path fill="#5B646C" d="M150.5 6.7l3.5 10.2c.2.6 1.2.3 1-.3l-3.5-10.2c-.3-.6-1.2-.3-1 .3z"/><path fill="#5B646C" d="M153.3 6.5l3.5 10.2c.2.6 1.2.3 1-.3l-3.5-10.2c-.3-.5-1.3-.3-1 .3z"/><path fill="#5B646C" d="M286.4 51.4c-6.3 0-6.6-1.4-6.7-1.9-.5-2.9 10.7-5.6 16.8-6.6 4.1-.7 8.1-1.1 11.3-1.1 6.3 0 6.6 1.4 6.7 1.9.2 1.2-1.4 2.4-4.9 3.7-3.1 1.2-7.3 2.2-11.9 3-4.1.7-8.1 1-11.3 1zm21.4-8.5c-3.1 0-7.1.4-11.2 1.1-10.8 1.8-16.1 4.5-15.9 5.5 0 .3 1.2 1 5.7 1 3.1 0 7.1-.4 11.2-1.1 4.5-.7 8.6-1.8 11.7-2.9 3.6-1.3 4.3-2.3 4.2-2.5-.1-.4-1.2-1.1-5.7-1.1z"/><rect x="258.4" y="74.7" transform="matrix(-.165 -.986 .986 -.165 257.377 368.312)" fill="#5B646C" width="52.3" height="1"/><path fill="#5B646C" d="M314.4 61.6c-1 0-1.7-1.9-2-3.5-.2-.9-.2-1.8-.1-2.5.1-.9.4-1.4 1-1.5h.1c1 0 1.7 1.9 2 3.5.2 1.3.3 2.9-.3 3.6-.2.3-.4.4-.6.4h-.1zm-.9-6.5c-.2.3-.3 1.3 0 2.8s.7 2.5 1 2.7c.1-.2.3-1.3 0-2.8-.3-1.6-.8-2.5-1-2.7z"/><path fill="#5B646C" d="M319 85.5l-.1-1s2.7-.3 4.7-2.9c2.4-3.1 3-7.9 1.9-14.4-1-6.3-3.1-10.3-6.2-11.9-2.9-1.5-5.7-.3-5.7-.3l-.4-.9c.1-.1 3.2-1.5 6.6.3 3.3 1.8 5.6 6 6.7 12.6 1.1 6.8.4 11.9-2.1 15.2-2.4 3-5.3 3.3-5.4 3.3z"/><path fill="#5B646C" d="M318.4 85.6c-1 0-1.7-1.9-2-3.5-.3-1.7-.2-3.8.9-4h.1c1 0 1.7 1.9 2 3.5.2 1.3.3 2.9-.3 3.6-.2.3-.4.4-.6.4h-.1zm-.9-6.5c-.2.3-.3 1.3 0 2.8s.7 2.5 1 2.7c.1-.2.3-1.3 0-2.8-.3-1.6-.8-2.5-1-2.7z"/><path fill="#5B646C" d="M318.1 79.1c-.5 0-.8-.1-.8-.1l.2-1c.1 0 1.7.3 2.9-.8 1.5-1.4 1.9-4.4 1.1-8.6-.9-5.3-2.5-7.1-3.7-7.6-1.3-.6-2.5.2-2.5.2l-.6-.8c.1 0 1.6-1.1 3.4-.3 2.1.9 3.5 3.7 4.3 8.3.8 4.7.3 7.9-1.5 9.5-.9 1-2.1 1.2-2.8 1.2z"/><rect x="270.8" y="78.1" transform="matrix(-.165 -.986 .986 -.165 271.285 386.767)" fill="#5B646C" width="57.2" height="1"/><path fill="#5B646C" stroke="#ED1C24" stroke-miterlimit="10" d="M284.9 50.9"/><rect x="262" y="78.5" transform="matrix(-.165 -.986 .986 -.165 260.522 378.514)" fill="#5B646C" width="57" height="1"/><rect x="280.9" y="76.5" transform="matrix(-.175 -.985 .985 -.175 287.9 395.241)" fill="#5B646C" width="57.2" height="1"/><rect x="286.7" y="74.1" transform="matrix(-.171 -.985 .985 -.171 295.135 397.592)" fill="#5B646C" width="56.3" height="1"/><polygon fill="#5B646C" points="294.4,104 288.4,101.5 288.7,100.6 294.6,103 303.3,102.6 313.5,100.9 318.5,98.6 322.1,95.3 313.5,43.9 314.5,43.8 323.1,95.7 319,99.4 313.7,101.9 303.4,103.6"/><polygon fill="#5B646C" points="295,107.7 289,105.2 288.3,101.1 289.3,100.9 289.9,104.5 295.2,106.7 304.3,106.2 314.9,104.5 319.5,102.1 322.7,98.9 322.1,95.6 323.1,95.4 323.7,99.2 320,103 315.1,105.5 304.4,107.2"/><path fill="#5B646C" stroke="#ED1C24" stroke-miterlimit="10" d="M294.8 107.1"/><path fill="#5B646C" d="M288.8 66c-6.3 0-6.6-1.4-6.7-1.9-.5-2.9 10.7-5.6 16.8-6.6 4.1-.7 8.1-1.1 11.3-1.1 6.4 0 6.6 1.4 6.7 1.9.5 2.9-10.7 5.6-16.8 6.6-4.1.7-8.1 1.1-11.3 1.1zm21.4-8.6c-3.1 0-7.1.4-11.2 1.1-10.8 1.8-16.1 4.5-15.9 5.5 0 .3 1.2 1 5.7 1 3.1 0 7.1-.4 11.2-1.1 10.8-1.8 16.1-4.5 15.9-5.5 0-.2-1.2-1-5.7-1z"/><line x1="306.1" y1="69.7" x2="306.1" y2="69.7" fill="none"/><line x1="306.2" y1="71.1" x2="306.2" y2="71.1" fill="none"/><path fill="#5B646C" d="M307 72.6c.5-.1.4-.9-.1-.8-.6.1-.5.9.1.8z"/><path fill="#5B646C" d="M293.8 62.6c.5-.1.4-.9-.1-.8-.5.1-.4.9.1.8z"/><path fill="#5B646C" d="M290.7 63.1c.5-.1.4-.9-.1-.8-.6.1-.5.9.1.8z"/><path fill="#5B646C" d="M284.9 63.6c.5-.1.4-.9-.1-.8-.6.1-.5.9.1.8z"/><path fill="#5B646C" d="M291.5 70c.5-.1.4-.9-.1-.8-.6.1-.5.9.1.8z"/><path fill="#5B646C" d="M308.1 93.1c.5-.1.4-.9-.1-.8-.6.1-.4.9.1.8z"/><path fill="#5B646C" d="M307.4 83.2c.5-.1.4-.9-.1-.8-.6 0-.4.8.1.8z"/><path fill="#5B646C" d="M310.2 82.7c.5-.1.4-.9-.1-.8-.6.1-.4.9.1.8z"/><path fill="#5B646C" d="M297.1 87.7c.5-.1.4-.9-.1-.8-.5 0-.4.9.1.8z"/><path fill="#5B646C" d="M292.6 86.1c.5-.1.4-.9-.1-.8s-.4.9.1.8z"/><path fill="#5B646C" d="M289.9 89.6c.5-.1.4-.9-.1-.8-.6.1-.4.9.1.8z"/><path fill="#5B646C" d="M291.7 97.9c.5-.1.4-.9-.1-.8-.6.1-.4.9.1.8z"/><path fill="#5B646C" d="M289.3 83c.5-.1.4-.9-.1-.8-.6 0-.4.8.1.8z"/><path fill="#5B646C" d="M314 67.5c.5-.1.4-.9-.1-.8-.6.1-.4.9.1.8z"/><path fill="#5B646C" d="M303 56.9c0 .1 0 .3.1.4.1.5.9.4.8-.1 0-.1 0-.3-.1-.4-.1-.5-.9-.4-.8.1z"/><path fill="#5B646C" d="M302.7 58.9c.5-.1.4-.9-.1-.8-.5.1-.4.9.1.8z"/><path fill="#5B646C" d="M306.3 63.9c.5-.1.4-.9-.1-.8-.5.1-.4.9.1.8z"/><path fill="#5B646C" d="M299.1 59c.5-.1.4-.9-.1-.8-.6.1-.4.9.1.8z"/><path fill="#5B646C" d="M299.5 96.3c.5-.1.4-.9-.1-.8s-.4.9.1.8z"/><path fill="#5B646C" d="M297.5 92.5c.5-.1.4-.9-.1-.8s-.4.9.1.8z"/><path fill="#5B646C" d="M298.8 89.3c.5-.1.4-.9-.1-.8-.6 0-.5.9.1.8z"/><path fill="#5B646C" d="M308.9 97.2c.5-.1.4-.9-.1-.8-.6.1-.4.9.1.8z"/><path fill="#5B646C" d="M311.1 76.5c.5-.1.4-.9-.1-.8s-.4.9.1.8z"/><path fill="#5B646C" d="M312.6 73.1c.5-.1.4-.9-.1-.8-.5 0-.4.8.1.8z"/><path fill="#5B646C" d="M310.9 64.8c.5-.1.4-.9-.1-.8-.6.1-.5.9.1.8z"/><path fill="#5B646C" d="M316.6 66.1c.5-.1.4-.9-.1-.8-.6.1-.5.9.1.8z"/><path fill="#5B646C" d="M318.1 75.3c.5-.1.4-.9-.1-.8-.6 0-.4.8.1.8z"/><path fill="#5B646C" d="M315 84.7c.5-.1.4-.9-.1-.8-.6.1-.4.9.1.8z"/><path fill="#5B646C" d="M312.7 91.5c.5-.1.4-.9-.1-.8s-.4.9.1.8z"/><path fill="#5B646C" d="M314.1 97.4c.5-.1.4-.9-.1-.8-.6.1-.4.9.1.8z"/><path fill="#5B646C" d="M316.5 97c.5-.1.4-.9-.1-.8s-.4.9.1.8z"/><path fill="#5B646C" d="M319.8 95.5c.5-.1.4-.9-.1-.8-.6.1-.4.9.1.8z"/><path fill="#5B646C" d="M320.7 94.4c.5-.1.4-.9-.1-.8-.6.1-.5.9.1.8z"/><path fill="#5B646C" d="M320.2 91.7c.5-.1.4-.9-.1-.8s-.4.9.1.8z"/><path fill="#5B646C" d="M313.3 86.9c.5-.1.4-.9-.1-.8-.6.1-.4.9.1.8z"/><path fill="#5B646C" d="M307.3 76.6c.5-.1.4-.9-.1-.8s-.4.9.1.8z"/><path fill="#5B646C" d="M303 66.1c.5-.1.4-.9-.1-.8-.6 0-.5.8.1.8z"/><path fill="#5B646C" d="M305.4 65.5c.5-.1.4-.9-.1-.8-.6 0-.5.8.1.8z"/><path fill="#5B646C" d="M6.7 34.3h-3.2l6.7-28.6.5.3c10.3 4 23.6-2.1 23.7-2.2l1-.5-7 26.7-1-.3 6.4-24.6c-3.2 1.3-13.9 5.2-23 2l-6.1 26.2h2v1z"/><path fill="#5B646C" d="M47.5 46.2l-.5-.2s-1-.3-2.6-1l.4-.9c.9.4 1.6.6 2 .8l7.4-26.3c-9.5-1.6-17-10.2-19.1-13l-6.5 24.3c0 .2-.2.3-.3.5 0 0-.1.1-.1.2 0 0 .1-.2 0-.3l-.2-.2-.2 1c-.4-.1-.5-.3-.5-.4-.1-.4.1-.7.3-.9l7-26.3.6.9c.1.1 8.7 11.9 19.6 13.5l.6.1-7.9 28.2z"/><path fill="#5B646C" d="M10.1 6.1c-.4-.6-.8-1.3-1.1-2-.3.3-.5.6-.7.9 2.6 1 5.5 1.4 8.2 1.6 3 .2 6 .1 8.9-.4 1.1-.2 9.3-2.6 9.2-2.7 5.7 6 13.7 13.1 22.4 13.6l-.5-1.1c-.7.6-1.4 1.2-2.1 1.7-.6.5.3 1.4.9.9.7-.6 1.4-1.2 2.1-1.7.5-.4 0-1-.5-1.1-8.3-.5-16.2-7.6-21.6-13.4-.1-.1-.4-.2-.6-.2-7.9 3.3-17.9 4.8-26.1 1.6-.6-.2-.9.5-.7 1 .4.7.7 1.4 1.2 2 .4.6 1.5 0 1-.7z"/><polygon fill="#5B646C" points="3.6,34.5 0.9,32.7 8,4.3 8.9,4.6 2,32.2 4.1,33.6"/><polygon fill="#5B646C" points="47.5,46.1 47,45.2 48.9,44.2 56.4,16.5 57.4,16.8 49.7,44.9"/><path fill="#5B646C" d="M12 39c-3.9 0-6.7-1-6.8-1l-.4-.2 7.4-28.4.5.2s3 1.3 7.1 1.3c5.2 0 9.8-2 13.8-5.9l1.3-1.3-6.9 26.6c-4.6 7.2-11.3 8.7-16 8.7zm-6-1.8c.9.3 3.2.8 6 .8 4.5 0 10.7-1.4 15.1-8.2l6-22.8c-3.9 3.3-8.4 5-13.3 5-3.3 0-5.9-.8-7-1.2l-6.8 26.4z"/><path fill="#5B646C" d="M44.1 48.1l-.5-.1c-.2 0-15.2-2.8-16.2-17.8v-.2l6.8-26.3.5 1.7c3.9 13.1 15.9 14.2 16.1 14.2h.6l-7.3 28.5zm-15.6-17.9c.9 12.9 12.4 16.2 14.9 16.7l6.9-26.4c-2.5-.3-11.9-2.5-15.9-13.1l-5.9 22.8z"/><path fill="#5B646C" d="M14 14.4c5.3 1.9 11.6 1.4 16.4-1.6.7-.4.1-1.5-.6-1.1-4.5 2.8-10.4 3.3-15.4 1.5-.8-.3-1.1.9-.4 1.2z"/><path fill="#5B646C" d="M12.8 19.3c5.3 1.9 11.6 1.4 16.4-1.6.7-.4.1-1.5-.6-1.1-4.5 2.8-10.4 3.3-15.4 1.5-.9-.3-1.2.9-.4 1.2z"/><path fill="#5B646C" d="M12.1 21.7c5.3 1.9 11.6 1.4 16.4-1.6.7-.4.1-1.5-.6-1.1-4.5 2.8-10.4 3.3-15.4 1.5-.8-.3-1.1.9-.4 1.2z"/><path fill="#5B646C" d="M10.9 26.5c5.3 1.9 11.6 1.4 16.4-1.6.7-.4.1-1.5-.6-1.1-4.5 2.8-10.4 3.3-15.4 1.4-.9-.2-1.2 1.1-.4 1.3z"/><path fill="#5B646C" d="M47.9 23.2c-5.3-.8-10.2-4.1-12.8-8.8-.4-.7-1.5-.1-1.1.6 2.7 5 7.9 8.5 13.5 9.4.9.2 1.2-1 .4-1.2z"/><path fill="#5B646C" d="M46.7 28.1c-5.3-.8-10.2-4.1-12.8-8.8-.4-.7-1.5-.1-1.1.6 2.7 5 7.9 8.5 13.5 9.4.8.1 1.2-1.1.4-1.2z"/><path fill="#5B646C" d="M45.4 32.9c-5.3-.8-10.2-4.1-12.8-8.8-.4-.7-1.5-.1-1.1.6 2.7 5 7.9 8.5 13.5 9.4.9.2 1.2-1 .4-1.2z"/><path fill="#5B646C" d="M254.1 16.8l8.5 27.9c.2.7-.2 1.5-.9 1.7-.7.2-1.5-.2-1.7-.9l-8.5-27.9c-.2-.7.2-1.5.9-1.7.7-.3 1.5.1 1.7.9zm6.8 28.3c.1.2.3.3.6.3.2-.1.3-.3.3-.6l-8.5-27.8c-.1-.2-.3-.3-.6-.3-.2.1-.3.3-.3.6l8.5 27.8z"/><path fill="#5B646C" d="M261.3 36.5c1.2 4.2 2.3 7.5 2.4 7.8.2 1-.2 1.5-.3 1.5l-.1.1-1.5.5-.2-.8 1.4-.5c0-.1.1-.2 0-.6-.1-.8-6.1-20.2-8.5-27.6-.1-.2-.3-.6-.5-.5l-1.4.5-.2-.8 1.4-.5c.8-.2 1.4.6 1.5 1 .3 1.8 3.7 12.3 6 19.9z"/><path fill="#5B646C" d="M293.6 150.9c-4.9-5.1-8.9-11.3-12-17.6-1.4-2.8-2.5-5.7-3.5-8.6-.5-1.4-.8-2.9-1.2-4.4-.2-.8-.3-1.5-.4-2.3-.1-.5-.8-3.2-.5-3.5.7-.8.2-1.1.6-.2.3.7.7 1.3 1.1 1.9 4.8 6.9 14.1 10.1 21.5 13 7.8 3.1 15.3 8.4 20 15.4 2.4 3.7 3.2 8 2.5 12.4-.8 5.3-4.5 7.7-9.6 6.4-1.8-.5-3.5-1.5-5.1-2.4-5-2.7-9.4-6.2-13.4-10.1-.5-.5-1.2.3-.7.7 4.2 4.2 9.1 7.8 14.3 10.7 1.9 1 3.9 2 6 2.4 10 1.7 11-11.4 8.1-18.1-3.5-8-12.1-13.8-19.7-17.4-7.6-3.6-16-5.8-21.9-12.1-.9-1-2.1-2.4-2.3-3.8 0-.2-.3-.4-.5-.4-1.3.1-1.9.8-1.8 2.1.2 2.6.8 5.2 1.4 7.7 1.3 5.1 3.5 10 6.1 14.6 2.8 5 6.2 10 10.3 14.2.5.6 1.2-.1.7-.6z"/><path fill="#5B646C" d="M322 159.5c2-8.5-3.7-17.1-10.3-22-5.7-4.2-12.6-7-19.2-9.5-6.7-2.6-12.6-6.9-16.4-13.1-.3-.6-1.2 0-.9.5 3.3 5.4 8.3 9.7 13.9 12.4 3.6 1.7 7.5 2.9 11.2 4.6 3 1.4 5.9 2.9 8.7 4.6 7.2 4.5 14.1 13.2 11.9 22.2 0 .7 1 1 1.1.3z"/><path fill="#5B646C" d="M322.4 149.4c-1.6-10.1-10.8-16.4-18.8-21.4l-15.9-9.9c-3.3-2-6.8-4.4-10.6-5.2-.6-.1-.9.8-.3 1 3.6.8 6.9 3 10 4.9 5.1 3.1 10.1 6.2 15.1 9.4 8.2 5.1 17.8 11.1 19.5 21.5.1.6 1.1.4 1-.3z"/><path fill="#5B646C" d="M232.5 20.5c3.2-.5 3.7-3.5 2.8-6.2-.2-.3-.9-.6-1.3-.8l-3.8-1.9c-3.5-1.8-6.9-3.4-10.3-5.2-1.7-.9-3.6-2.1-5.5-2.8-.7-.3-1.8.7-2.3 1.1-1.6 1.2-1.7 3.2-1.1 5 .2 1 3.7 2.1 4.6 2.4l16.7 8.2c.6.3 1-.7.3-1l-11.9-5.8c-2.4-1.2-4.8-2.4-7.2-3.5l-1.7-.8c-.5-.3 0-2.4.4-3.1.4-.7 1.4-1.2 2-1.4-.2 0-.5-.2-.1 0 .2.1.5.3.9.4l2.7 1.4c2.8 1.4 5.6 2.8 8.4 4.3l6.9 3.4 1.5.7c2.1 1-.9 4.2-2.2 4.5-.8.2-.5 1.2.2 1.1z"/><path fill="#5B646C" d="M234.7 14.1l.1 1s-1.6.2-2.4 1.3c-.5.8-.5 1.8-.1 3.1l-.9.3c-.6-1.7-.5-3.1.2-4.1 1-1.5 3.1-1.6 3.1-1.6z"/><path fill="#5B646C" d="M234.7 16.4c.7.3 1.1 1 .8 1.6l-.2.5c-.3.6-.9.9-1.5.8-.4-.2-.6-.4-.8-.7-.2-.3-.2-.7 0-.9l.2-.5c.3-.7.9-1 1.5-.8zm-.5 1.9c.1 0 .2 0 .2-.1l.2-.5c0-.1 0-.2-.1-.2l.2-.5-.2.5c-.1 0-.2 0-.2.1l-.2.5c-.1 0-.1.1.1.2z"/><path fill="#5B646C" d="M232.5 13l.2 1s-1.6.3-2.3 1.7c-.5.9-.5 1.9 0 3.3l-1 .4c-.5-1.6-.5-3 .1-4.1 1-1.8 3.1-2.1 3-2.3z"/><path fill="#5B646C" d="M225.2 13.4l-2.1-2.5c-.3-.3-.8-.2-.9.2l-.3 1.4c.3 0 .6-.1.9-.2-.9-1-1.9-2-2.8-2.9-.5-.5-1.3.2-.8.7l2.8 2.9c.3.3.8.2.9-.2l.3-1.4c-.3 0-.6.1-.9.2l2.1 2.5c.3.5 1.2-.2.8-.7z"/><path fill="#5B646C" d="M63.1 95.2c-4 .9-8-1.6-8.9-5.5-.9-4 1.6-8 5.5-8.9 4-.9 8 1.6 8.9 5.5 1 3.9-1.5 7.9-5.5 8.9zm-3.1-13.6c-3.5.8-5.7 4.3-4.8 7.8.8 3.5 4.3 5.7 7.8 4.8 3.5-.8 5.7-4.3 4.8-7.8-.9-3.5-4.4-5.6-7.8-4.8z"/><polygon fill="#5B646C" points="62,89.8 55.9,84.1 56.6,83.4 61.3,87.9 62.5,81.2 63.4,81.3"/><polygon fill="#5B646C" points="61.3,94.8 54.2,87.9 54.8,87.3 60.6,92.8 61.4,88.1 65.2,91.3 66.2,83.5 67.1,83.6 65.9,93.2 62.1,90"/><path fill="#5B646C" stroke="#ED1C24" stroke-miterlimit="10" d="M56.9 82.2"/><path fill="#5B646C" d="M191.4 126.3c-1.7 0-3.2-1.2-3.7-2.8l-6.1-22.6c-.5-2 .7-4.1 2.7-4.7l11.9-3.2c.3-.1.7-.1 1-.1 1.7 0 3.2 1.2 3.7 2.8l6.1 22.6c.5 2-.7 4.1-2.7 4.7l-11.9 3.2c-.4 0-.7.1-1 .1zm5.8-32.4c-.2 0-.5 0-.7.1l-11.9 3.2c-1.4.4-2.3 1.9-1.9 3.3l6.1 22.6c.4 1.4 1.9 2.3 3.3 1.9l11.9-3.2c1.4-.4 2.3-1.9 1.9-3.3l-6.1-22.6c-.3-1.2-1.4-2-2.6-2z"/><path fill="#5B646C" d="M198 122.9c-1.2 0-2.1-1-2.1-2.1 0-1.2 1-2.2 2.1-2.2 1.2 0 2.2 1 2.2 2.2 0 1.1-1 2.1-2.2 2.1zm0-3.3c-.6 0-1.1.5-1.1 1.1s.5 1.1 1.1 1.1 1.1-.5 1.1-1.1-.5-1.1-1.1-1.1z"/><path fill="#5B646C" d="M191 128c-2.4 0-3.9-1.8-4.4-2.8-1.9-7-6.2-23-6.2-23.6 0-1.4 1.4-3.3 1.5-3.5l.9.6c-.5.7-1.3 2.1-1.3 2.8.1.7 3.7 14.3 6.2 23.2 0 0 1.3 2.6 4.2 2 3.2-.6 14-3.9 14.1-3.9 0 0 .9-.5.2-4l1.1-.2c.5 2.2.5 3.8-.1 4.7-.3.5-.7.6-.8.6-.4.1-10.8 3.3-14.1 3.9-.6.1-1 .2-1.3.2z"/><path fill="#5B646C" d="M190.5 120.3c-1.3 0-2.5-1.1-2.9-2.7l-4.2-15.8c-.5-1.8.3-3.6 1.7-4l11.4-3.1c1.4-.4 2.9.8 3.4 2.6l4.2 15.8c.5 1.8-.3 3.6-1.7 4l-11.4 3.1c-.2 0-.4.1-.5.1zm6.5-24.5h-.3l-11.4 3.1c-.8.2-1.2 1.4-.9 2.7l4.2 15.8c.3 1.2 1.3 2.1 2.1 1.9l11.4-3.1c.8-.2 1.2-1.4.9-2.7l-4.2-15.8c-.3-1.1-1.1-1.9-1.8-1.9z"/><circle fill="#5B646C" cx="194.7" cy="109.2" r="1"/><path fill="#5B646C" d="M192.1 109.5c.2-.5.5-1 .9-1.4 1.2-1.3 2.9-.7 4.2.1.5.3 1-.5.5-.9-1.5-1-3.3-1.5-4.9-.4-.8.5-1.4 1.4-1.7 2.3-.2.6.8.9 1 .3z"/><path fill="#5B646C" d="M189.5 109.1c.4-1.1 1-2.2 1.9-3.1 2.3-2.4 5.3-1.2 7.5.5.5.4 1-.5.5-.9-2.3-1.8-5.5-3.1-8.1-1-1.3 1.1-2.3 2.6-2.8 4.2-.2.7.8 1 1 .3z"/><path fill="#5B646C" d="M230.1 203.3c-.3 0-.5-.1-.7-.3-.4-.2-.6-.6-.7-1l1.4-.3c0 .1.1.1.1.1h.2l2.6-.6c.1 0 .1-.1.1-.1v-.2l1.4-.3c.1.4 0 .9-.2 1.2-.2.4-.6.6-1 .7l-2.6.6c-.3.2-.4.2-.6.2z"/><path fill="#5B646C" d="M215.5 207.1l-2.6-.3-.2-.1c-.1-.1-1.3-.7-1.3-1.8 0-.8.5-1.5 1.5-2.2.2-.1 11.7-6.1 22.6-7.9l74-19.2c.1 0 3.4-1 6.4-.7 2.4.2 3.9 1.1 4.6 2.7.5 1.3.5 2.5-.1 3.6-1.5 2.9-6.4 4-6.6 4l-75.3 19.4c-.2 0-11.9 3.5-23 2.5zm-2.2-1.6c11.5 1.7 24.6-2.2 24.7-2.3l75.4-19.4c.1 0 4.5-1 5.7-3.3.4-.7.4-1.5 0-2.4-.4-1.1-1.6-1.7-3.4-1.8-2.7-.2-5.9.7-5.9.7l-74 19.2c-10.7 1.8-22.1 7.7-22.2 7.8-.5.3-.8.7-.8.9s.3.5.5.6z"/><path fill="#5B646C" d="M259.6 198.8l-1.3-.5c.1-.2 2.1-5.3-2.5-7.5l.6-1.3c4.7 2.3 4.1 7.1 3.2 9.3z"/><path fill="#5B646C" d="M216.3 207c1.2-.8 1.5-2.3 1-3.6-.3-.8-1.6-.2-1.2.6.3.8 0 1.5-.6 1.9-.8.5.1 1.6.8 1.1z"/><path fill="#5B646C" d="M229.2 202.3c-.7-.1-1.2-.5-1.4-1.1-.1-.4 0-.8.2-1.2.2-.3.6-.6 1-.7l26.5-7c.9-.2 1.8.3 2 1 .1.4 0 .8-.2 1.2-.2.3-.6.6-1 .7l-26.5 7c-.2.1-.4.1-.6.1zm26.8-8.6l-26.6 7c-.1 0-.2.1-.2.2 0 0 .1.1.3 0l26.5-7c.1 0 .2-.1.2-.2-.1.1-.1 0-.2 0z"/><path fill="#5B646C" d="M260.9 192.6l52.7-13.2c.8-.2.6-1.6-.2-1.3l-52.7 13.2c-.9.1-.6 1.5.2 1.3z"/><path fill="#5B646C" d="M61.2 95.3c4.6.2 8.1-2.7 8.2-7.3.2-4.8-3.7-8-8.4-7.5-.1 0-.1.2 0 .2 4.4-.5 7.8 2.3 8.2 6.7.4 4.8-3.5 8-8 7.8-.2-.1-.2.1 0 .1z"/><rect x="66.7" y="84.2" transform="matrix(-.992 -.127 .127 -.992 121.847 184.68)" fill="#5B646C" width=".2" height="8.5"/><rect x="62.5" y="81.4" transform="matrix(-.987 -.161 .161 -.987 110.231 185.213)" fill="#5B646C" width=".2" height="13.5"/><path fill="#5B646C" d="M292 30.9c-.6-1.6-1-3.3-.7-5.1.3-1.7 2.2.7 2.3.9.6 1 .9 2 1.3 3.2.6 1.6 1 3.3.7 5.1-.3 1.7-2.2-1.2-2-1-.7-.9-1.1-2.1-1.6-3.1-.1-.3-.7-.1-.6.1.6 1.3 1.7 5.2 3.9 5.1 2-.3.3-5.5 0-6.4-.4-1.3-1.4-5.4-3.5-5.1-2.5.4-.7 5.1-.3 6.4.1.4.7.2.5-.1z"/><path fill="#5B646C" d="M292.2 25.3c1-1.2 2.2-2.9 3.6-3.6.6-.3 1-.1.6-.4l.3.1c.6.4 1.2 1 1.7 1.7 2.2 2.5 3.3 5.8 3.9 9.1.3 1.9.4 1.6-1 2.6-.9.6-1.6.6-2.5.6-1 0-2 0-3.2-.1-.7 0-.6 1 0 1 3 .1 5.4.4 7.7-1.9.7-.7-.4-4.2-.7-5.1-.6-2-1.4-3.9-2.6-5.6-.6-.9-2.2-3.3-3.5-3.3-2 0-3.9 3-5.2 4.3-.3.3.5 1 .9.6z"/><path fill="#5B646C" d="M294.9 21.7c4 3.2 5.8 8.8 5.8 13.7 0 .4.6.4.6 0 0-5.2-1.9-11-6.1-14.2-.3-.3-.6.3-.3.5z"/><path fill="#5B646C" d="M302.9 32.4l4.2-1.7c.9-.3 3.3-.9 3.9-1.7.4-.7.1-2.3 0-3.2-.4-2.9-2.2-5.2-4.3-7.1-.1-.1-.3-.1-.4-.1l-8.1 3c-.6.3-.3 1.2.3 1 1.9-.7 3.8-1.4 5.6-2l2.3-.9 2.2 2.6c.7 1 1 2.2 1.3 3.3.3 1 .3 2 .1 3l-.3-.1-1.3.6c-2 .9-4 1.7-5.9 2.5-.6.2-.2 1.1.4.8z"/><path fill="#5B646C" d="M309.4 29.5c2.6 1.7 7.2-1.6 9.5-2.7 1.7-.9 3.2-1.7 4.3-3.3.7-1.2-.1-3.2-.6-4.2-1.3-3.8-3.3-6.7-7.5-5.4-2.5.7-4.8 1.7-7.1 2.7-1.4.6-2.3 1-2.7 2.6-.1.6.7.9 1 .3.7-2.3 4.8-3 6.7-3.8 1.7-.6 4-1.9 5.8-1 1.6.9 2.5 3.2 3 4.8.3 1 .6 2 .7 2.9.1 1.6-2.9 2.9-4 3.5-1.9.9-6.5 4-8.5 2.7-.6-.3-1.2.6-.6.9z"/><path fill="#5B646C" d="M306.4 18.3c1.7.9 3 1.7 3.9 3.5 1.2 2.2 2.3 4.6 1.3 7.2-.1.3.4.4.6.1 1-2.3.1-4.5-.9-6.7-1-2.5-2.3-3.5-4.6-4.6-.3-.2-.6.4-.3.5z"/><path fill="#5B646C" d="M312.9 26c3.3-1.4 6.7-2.9 10-4.2.3-.1.1-.7-.1-.6-3.3 1.4-6.7 2.9-10 4.2-.5.2-.4.7.1.6z"/><path fill="#5B646C" d="M309.8 20.5c3.6-1.4 7.2-2.7 10.7-4.2.3-.1.1-.7-.1-.6-3.6 1.4-7.2 2.7-10.7 4.2-.3.2-.2.8.1.6z"/><path fill="#5B646C" d="M163.5 96.9c-2.1 0-3.7-1.4-3.7-1.4l.2-.2c.1.1 3.6 3.2 7.3-.5 1.7-1.7 2.1-4.1 1.2-6.2-1-2.2-3.2-3.6-5.7-3.5v-.3c2.6-.1 4.9 1.3 5.9 3.7 1 2.3.5 4.8-1.3 6.6-1.3 1.3-2.7 1.8-3.9 1.8z"/><path fill="#5B646C" d="M268.7 64.2c-3.1 0-5.7-2.6-5.7-5.7s2.6-5.7 5.7-5.7 5.7 2.6 5.7 5.7c0 3.2-2.5 5.7-5.7 5.7zm0-10.4c-2.6 0-4.7 2.1-4.7 4.7s2.1 4.7 4.7 4.7 4.7-2.1 4.7-4.7c0-2.5-2.1-4.7-4.7-4.7z"/><path fill="#5B646C" d="M269.2 61.2v-5.4c0-.6-1-.6-1 0v5.4c0 .7 1 .7 1 0z"/><path fill="#5B646C" d="M266.2 59h5.2c.6 0 .6-1 0-1h-5.2c-.6 0-.6 1 0 1z"/><path fill="#5B646C" d="M269.4 64.8c-2.1 0-3.7-1.4-3.7-1.4l.2-.2c.1.1 3.6 3.2 7.3-.5 1.7-1.7 2.1-4.1 1.2-6.2-1-2.2-3.2-3.6-5.7-3.5v-.3c2.6-.1 4.9 1.3 5.9 3.7 1 2.3.5 4.8-1.3 6.6-1.2 1.4-2.6 1.8-3.9 1.8z"/><path fill="#5B646C" d="M287.9 202.2c6.3-.4 11.4-4.6 17.1-6.8 3.3-1.3 6.7-2.3 10.2-2.7l3.6-.4c1.6-.3 2.5-.5 4.1.8 1.4 1.1.7 2.1-.7 2.5-1.7.4-3.7-.2-5.4-.4-2.9-.3-5.7.4-8.3 1.4-4.5 1.6-8.6 2.7-12.7 5.2-2.8 1.7-3.3 4.3-.6 6.3 3.6 2.6 9.1 3.5 13.4 3.3 4.7-.3 9.3-2 14-2.5.9-.1 4.8-.5 4.5 1.1-.9 3.9-6.1 2.4-8.8 2.2-4.1-.3-8.3.7-12.5.6-6.7-.3-12.2-4.7-18.5-6.2-2.9-.7-6.1.1-9 .4-1 .1-2 .2-3 .2-2.3 0-4.2-1.6-1.5-3.6 3.9-3 9.6-2.6 14.1-1.4.6.2.9-.8.3-1-3.8-1-8.3-1.5-11.9.1-1.5.6-3.7 1.4-4.4 3-.6 1.4-.5 2.7 1 3.5 1.4.7 3.5.4 5 .3 3.6-.3 7.3-1.2 10.8 0 6.1 2 11.5 5.5 18 5.8 4.4.2 8.7-.9 13.1-.5 2.2.2 4.4.7 6.4-.5.9-.6 2.2-2.2 2-3.3-.4-2.5-5.3-1.6-6.9-1.4-5.2.6-10.1 2.5-15.3 2.3-3.3-.1-7.4-1.5-10.2-3.2-4.5-2.8 3.2-6.2 5.4-7.2 1.5-.7 3.1-1.1 4.6-1.5l6.3-2c3.3-.8 6.2.3 9.5.2 1.8-.1 4.5-1.2 3.2-3.2-2.1-3.5-6.2-2-9.5-1.7-4.4.4-8.7 2-12.7 3.7-4.8 2-9.1 5.5-14.5 5.8-.9-.2-.9.8-.2.8z"/><path fill="#5B646C" d="M164.5 214.8l-.1-.2c-7.8-9.1.4-20.9.6-21l.2-.4 17.1 9.4-.1.4c0 .1-5.6 13.3-17.4 11.8h-.3zm1.2-20.2c-1.3 2.1-6.7 11.5-.4 19.2 9.7 1.1 14.8-8.6 15.8-10.7l-15.4-8.5z"/><path fill="#5B646C" d="M182.1 203.5l-.6-.1-16.6-9.1c-1-.6-1.3-1.8-.8-2.7.5-.9 1.9-1.7 3-1.2l16.6 9.1c1 .6 1.1 2.2.5 3.1-.2.8-1.2 1.2-2.1.9zm-15.5-11.8c-.3-.1-.8.2-1.1.6-.2.2 0 .7.2.8l16.6 9.1c.2.2.7 0 .8-.2.2-.4.1-1.2 0-1.2l-16.5-9.1z"/><path fill="#5B646C" d="M175.4 196.2c-.3-.1-.4-.1-.5-.3-.5-.4-.6-1.3-.1-1.8l2.2-2.4c.4-.5 1.3-.6 1.8-.1.2.2.5.6.4.8.1.3-.2.7-.4.9l-2.2 2.4c-.2.4-.6.6-1.2.5zm2.7-4.3c-.3-.1-.5 0-.6.1l-2.2 2.4c-.2.2-.2.7.1.9s.7.2.9-.1l2.2-2.4c.2-.1.2-.2.1-.4s-.1-.3-.2-.4c-.2 0-.2 0-.3-.1z"/><path fill="#5B646C" d="M167.8 212.7l-.1-.3c7-1.3 11.4-9.9 11.5-10l.2.2c.2 0-4.3 8.8-11.6 10.1z"/><path fill="#5B646C" d="M174.4 210.8l-.2-.4c3.3-2.3 5.9-7.4 5.9-7.6l.2.2c0 .1-2.5 5.4-5.9 7.8z"/><path fill="#5B646C" d="M163.2 202.7c-.3-3 2.5-7.4 2.7-7.5l.2.2s-2.8 4.5-2.6 7.4l-.3-.1z"/><path fill="#5B646C" d="M180.5 201.9l-.2-.4c1.5-.7 1.3-2.2 1.3-2.3l.3-.1c0 .1.3 2.1-1.4 2.8z"/><path fill="#5B646C" stroke="#ED1C24" stroke-width=".25" stroke-miterlimit="10" d="M182.8 199.8"/><path fill="#5B646C" d="M181.5 202.5l-.2-.4c1.5-.7 1.3-2.2 1.3-2.3l.3-.1c0 .2.3 2-1.4 2.8z"/><path fill="#5B646C" d="M178.5 200.8l-.2-.4c1.5-.7 1.3-2.2 1.3-2.3l.3-.1c0 .2.3 2.1-1.4 2.8z"/><path fill="#5B646C" d="M179.6 201.4l-.2-.4c1.5-.7 1.3-2.3 1.3-2.3l.3-.1c.1.2.2 2-1.4 2.8z"/><path fill="#5B646C" d="M166 194.1s-.2-2 1.4-2.8l.2.4c-1.5.7-1.3 2.2-1.3 2.3l-.3.1z"/></svg>