<?xml version="1.0" encoding="utf-8"?>
<!-- Generator: Adobe Illustrator 18.0.0, SVG Export Plug-In . SVG Version: 6.00 Build 0)  -->
<!DOCTYPE svg PUBLIC "-//W3C//DTD SVG 1.1//EN" "http://www.w3.org/Graphics/SVG/1.1/DTD/svg11.dtd">
<svg version="1.1" id="Layer_1" xmlns="http://www.w3.org/2000/svg" xmlns:xlink="http://www.w3.org/1999/xlink" x="0px" y="0px"
	 width="737.5px" height="798px" viewBox="0 0 737.5 798" enable-background="new 0 0 737.5 798" xml:space="preserve">
<g>
	<circle fill="#949EAB" cx="369" cy="427.5" r="352"/>
	<path fill="#4C5662" d="M369,794.5c-49.5,0-97.6-9.7-142.9-28.8c-43.7-18.5-83-44.9-116.7-78.6c-33.7-33.7-60.2-72.9-78.6-116.7
		C11.7,525.1,2,477,2,427.5s9.7-97.6,28.8-142.9c18.5-43.7,44.9-83,78.6-116.7s72.9-60.2,116.7-78.6c45.3-19.1,93.3-28.8,142.9-28.8
		s97.6,9.7,142.9,28.8c43.7,18.5,83,44.9,116.7,78.6c33.7,33.7,60.2,72.9,78.6,116.7C726.3,329.9,736,378,736,427.5
		s-9.7,97.6-28.8,142.9c-18.5,43.7-44.9,83-78.6,116.7c-33.7,33.7-72.9,60.2-116.7,78.6C466.6,784.8,418.5,794.5,369,794.5z
		 M369,90.5c-90,0-174.6,35.1-238.3,98.7S32,337.5,32,427.5c0,90,35.1,174.6,98.7,238.3c63.7,63.7,148.3,98.7,238.3,98.7
		c90,0,174.6-35.1,238.3-98.7c63.7-63.7,98.7-148.3,98.7-238.3c0-90-35.1-174.6-98.7-238.3C543.6,125.6,459,90.5,369,90.5z"/>
</g>
<path display="none" fill="#43B693" stroke="#000000" stroke-width="8" stroke-miterlimit="10" d="M649.5,620
	c-4.8-13.7-126.7-41-126.7-41c-75.4,75.4-142.9,81.2-153.1,81.6c-10.2-0.4-78.8-6.2-154.2-81.6c0,0-116.8,23.3-125.5,41
	s41.1,182.1,277.5,183.1h2.5C606.4,802.1,654.3,633.7,649.5,620z"/>
<g>
	<path fill="#FCE1CB" d="M548.6,258.6c0,0,34.5-12,31.1,27.5c0,0-1.5,55-25.6,94.4c0,0-8.7,23.8-27,13.5"/>
	<path fill="#1E1A17" d="M535.9,400.6c-3.5,0-7.1-1-10.8-3.1l3.9-7c3.8,2.1,7.1,2.6,10.3,1.5c7.2-2.6,11-12.8,11-12.9l0.1-0.4
		l0.2-0.3c23.3-38,25-91.9,25-92.4l0-0.2c0.9-10.8-1-18.1-5.8-21.8c-7.4-5.7-19.9-1.6-20-1.5l-2.6-7.6c0.7-0.2,16.7-5.7,27.5,2.8
		c7,5.5,10,15.1,8.9,28.7c-0.1,3.6-2.1,56.7-26,95.9c-0.9,2.3-5.9,13.6-15.6,17.2C540.1,400.2,538,400.6,535.9,400.6z"/>
</g>
<g>
	<path fill="#E2C7B5" d="M554.5,355.7c0,0,17.9-48.2,15.1-78.9c0,0-3.9-23.5-20.8-3.8c0,0,12.4-4.6,15.6,7.2
		C567.2,290.9,565.1,304,554.5,355.7z"/>
</g>
<g>
	<path fill="#FCE1CB" d="M503.9,472.1c0,0-5.8,73.8,15.2,102.4c0,0,19.3,24.6-30.5,78.2c0,0-31.2,41.2-121.8,44.4h4.6
		c-90.7-3.2-121.8-44.4-121.8-44.4c-49.7-53.5-30.5-78.2-30.5-78.2c21-28.5,15.2-102.4,15.2-102.4"/>
	<path fill="#1E1A17" d="M371.4,701.1h-4.6l0-0.2c-86.1-4.3-117.6-42.3-120.3-45.6c-50.5-54.4-32.1-81.3-30.7-83.2
		c19.9-27,14.5-99,14.4-99.7l8-0.6c0.2,3.1,5.7,75.7-16,105.1l-0.1,0.1c-0.1,0.2-16,23.2,30.3,73l0.3,0.3c0.1,0.1,7.8,10,26.1,20.2
		c16.7,9.3,45.8,20.6,90.2,22.5c44.3-1.9,73.4-13.3,90.1-22.5c18.4-10.2,26.1-20.1,26.2-20.2l0.3-0.3c46.3-49.9,30.4-72.8,30.2-73.1
		c-21.7-29.5-16.2-102.1-16-105.1l8,0.6c-0.1,0.7-5.4,72.6,14.4,99.7c1.5,1.9,19.9,28.7-30.7,83.2c-2.6,3.3-34.2,41.3-120.2,45.6
		L371.4,701.1z"/>
</g>
<g>
	<path fill="#E5CFC1" d="M428.6,557.3c0,0-45.6,79.7-135.1,44.2C237.1,579.1,247.4,487,247.4,487"/>
</g>
<g>
	<path fill="#FCE1CB" d="M538.9,170.3c1.2,19.3,2.9,43.6,0,69.4c0,0-0.7,56.3-0.7,87.3s-15.2,92.9-16.8,113.2
		c-2.7,33-42.7,74.2-79.6,108.8c0,0-20.3,16.7-71,16.7c0,0-38.2,0.1-66.7-19.7c0,0-75-46.5-92.2-111l-10.6-98l-5.3-50l-3.8-45.3
		c0,0-4.9-34.3-3-75.8C190.7,134.3,535.2,112.5,538.9,170.3z"/>
	<path fill="#1E1A17" d="M370.8,569.7L370.8,569.7c-1.6,0-39.9-0.2-68.9-20.4c-4.2-2.6-76.6-48.6-93.9-113.3l-0.1-0.6l-10.6-98
		l-5.3-50l-3.8-45.3c-0.3-2.3-4.9-36.3-3-76.4c0.5-10.8,22-19.1,67.6-26.1c39.1-6,88.3-9.4,134.8-9.4c57,0,153.1,5.2,155.3,39.8
		l0.1,2.3c1.2,19,2.7,42.6-0.1,67.6c0,3.7-0.7,57.4-0.7,87.1c0,19.6-5.9,51.2-10.7,76.6c-3,15.8-5.5,29.4-6.1,36.9
		c-2.8,34-42.4,75.4-80.9,111.4l-0.2,0.2C443.5,552.8,422.3,569.7,370.8,569.7z M215.8,434.3c4.8,17.9,17.7,45.8,51.3,77.5
		c20.4,19.2,38.8,30.7,39,30.8l0.2,0.1c27,18.8,64,19,64.4,19v4l0-4c46.8,0,67-14.6,68.4-15.7c37.3-35,75.7-74.9,78.2-106.1
		c0.6-7.9,3.2-21.8,6.2-37.8c4.7-25.1,10.6-56.3,10.6-75.1c0-30.7,0.7-86.8,0.7-87.3l0-0.4c2.7-24.5,1.3-47.7,0.1-66.4l-0.1-2.3
		c-1.3-19.6-59.1-32.3-147.3-32.3c-45.5,0-95.4,3.5-133.6,9.3c-58.7,8.9-60.8,18.4-60.8,18.5c-1.9,40.6,2.9,74.7,3,75l0,0.2
		l3.8,45.3l5.3,49.9L215.8,434.3z"/>
</g>
<g>
	<path fill="none" d="M185.4,248"/>
</g>
<g>
	<path fill="#FCE1CB" d="M185.5,257.6c0,0-34.5-12-31.1,27.5c0,0,1.5,55,25.6,94.4c0,0,8.7,23.8,27,13.5"/>
	<path fill="#1E1A17" d="M198.2,399.6c-2.1,0-4.2-0.4-6.2-1.1c-9.7-3.6-14.7-14.9-15.6-17.2c-23.9-39.3-25.9-92.3-26-95.9
		c-1.1-13.6,1.8-23.2,8.9-28.7c10.9-8.4,26.9-3,27.5-2.8l-2.6,7.6l1.3-3.8l-1.3,3.8c-0.1,0-12.6-4.2-20,1.6
		c-4.8,3.7-6.7,11.1-5.8,21.8l0,0.2c0,0.5,1.8,54.4,25,92.4l0.2,0.3l0.1,0.4c0,0.1,3.9,10.2,11,12.9c3.1,1.1,6.5,0.7,10.3-1.5l3.9,7
		C205.3,398.6,201.7,399.6,198.2,399.6z"/>
</g>
<g>
	<path fill="#1E1A17" d="M369.6,425.8c-3.8,0-8.5-1.9-9-2.1l-0.8-0.3l-0.4-0.7c-3.6-6-7.7-9.6-12.1-10.5c-4.8-1-8.4,1.4-8.5,1.5
		l-2.9-4.1c0.2-0.2,5.4-3.8,12.3-2.3c5.6,1.2,10.7,5.2,15,12.1c1.6,0.6,4.4,1.4,6.4,1.4c2,0,4.7-0.8,6.3-1.4
		c2.9-5.6,6.9-9.3,11.8-11c6.5-2.2,12.5-0.2,14.6,0.7c1.5-0.2,2.5-0.7,3.2-1.5c1.1-1.3,1-3,1-3l0-0.5l0.1-0.5
		c4.2-14.2-6.1-27.4-15.3-39.1c-4.7-6-8.7-11.2-10.4-16c-5.1-14.8,6.7-25.9,7.2-26.3l3.4,3.7c-0.4,0.4-9.8,9.4-5.8,21.1
		c1.4,4,5.4,9.1,9.6,14.5c9.3,11.9,20.9,26.7,16.3,43.2c0,1.2-0.2,3.8-2.2,6.1c-1.7,2-4.1,3.1-7.3,3.3l-0.7,0.1l-0.6-0.3
		c0,0-5.7-2.7-11.5-0.7c-3.9,1.3-7,4.5-9.4,9.4l-0.4,0.9l-0.9,0.4C378.4,423.8,373.5,425.8,369.6,425.8z"/>
</g>
<g>
	<path fill="#E2C7B5" d="M179.7,354.7c0,0-17.9-48.2-15.1-78.9c0,0,3.9-23.5,20.8-3.8c0,0-12.4-4.6-15.6,7.2
		C166.9,289.9,169,303,179.7,354.7z"/>
</g>
<g>
	<path fill="#E5CFC1" d="M220.5,336.7c0,0,7.9,30.5,9.6,78.3c0,0-3.6,37.3,50.6,78.4c0,0-19.3-53.2-17.5-84.2
		C265.1,378.2,255.1,352.3,220.5,336.7z"/>
</g>
<g>
	<path fill="#AAA19F" d="M521.1,81.1C465,8.2,380.7,7.4,367.1,7.8c-13.7-0.4-97.9,0.4-154,73.3c-5.3,6.9-9.8,13.9-13.7,20.9
		c-6,10.8-13.2,25.1-14.1,38.2c-6.8,94.8-0.9,90.5,1.8,129.8c0,0,7.7,40.3,16.2,73.1c0,0-4.2-70.7,14.8-88c0,0,16.2-9.3,13.8-74.6
		c0,0,2.5-18.3,34.2-25.3c37-8.2,44.7-10.2,102.9-10.2s53.5,4.7,96.8,11.3c28.7,4.4,36.6,24.3,36.6,24.3
		c-0.1,67.9,13.8,74.6,13.8,74.6c20.6,27.5,19.2,88,19.2,88c8.5-36,13.4-72.2,13.4-72.2c7.5-52,16.7-76.6,0.6-143.9
		C545.7,112,533.9,97.8,521.1,81.1z"/>
	<path fill="#1E1A17" d="M531.7,371.7l0.7-28.6c0-0.6,1.1-59.1-18.3-85.7c-1.6-1.1-4.7-4.4-7.7-13.1c-4.7-13.7-7-34.9-7-63.1
		c-1.4-3-9.6-18.2-34.1-22c-13.7-2.1-22.5-4-30.3-5.6c-16.5-3.5-26.5-5.6-66.1-5.6c-56.6,0-64.9,1.8-99.8,9.6l-2.4,0.5
		c-27.5,6.1-31.4,20.5-31.8,22.6c2.2,61.9-12,74.8-15,76.8c-7.1,6.7-11.7,23.3-13.4,48.3c-1.3,19.4-0.3,37-0.3,37.1l-5.9,0.9
		c-8.4-32.5-16.2-72.9-16.2-73.3l0-0.4c-0.7-10-1.6-17-2.4-23.9c-2.5-19.9-4.5-35.6,0.6-106.3c0.9-13.5,8.2-28.2,14.5-39.4
		c4.3-7.6,8.8-14.6,13.9-21.3C263.9,10.1,341.4,4.8,363.9,4.8c1.3,0,2.4,0,3.2,0c0.8,0,1.9,0,3.2,0c22.5,0,100,5.4,153.2,74.5
		c1.2,1.6,2.4,3.2,3.6,4.7c11.6,15.1,21.7,28.1,25.2,42.4c13.7,57.1,9.2,84.3,3.1,121.9c-1.2,7.3-2.4,14.8-3.6,23.2
		c0,0.3-5,36.7-13.4,72.5L531.7,371.7z M517.6,252.5l0.8,0.3l0.2,0.6c12.7,17,17.3,45.4,18.9,65.7c5.3-26.4,8.2-48.3,8.3-48.6
		c1.2-8.4,2.4-16,3.6-23.3c10.4-63.6,5.1-85.8-3-119.5c-3.2-13-12.9-25.6-24.1-40.1c-1.2-1.6-2.4-3.1-3.6-4.7
		c-51.5-67-126.6-72.2-148.4-72.2c-1.3,0-2.3,0-3.1,0l-0.1,0l-0.1,0c-0.8,0-1.9,0-3.1,0c-21.8,0-96.9,5.2-148.4,72.2
		c-4.9,6.4-9.3,13.2-13.5,20.5c-5.9,10.7-12.9,24.6-13.7,36.9c-5,70.2-3.1,85.6-0.7,105.2c0.9,6.9,1.7,14,2.4,24
		c0.4,2.2,4.6,23.6,9.9,47.2c0.7-22.5,3.9-52.9,16.1-63.9l0.2-0.2l0.3-0.2c0.1,0,14.6-10.4,12.3-71.9l0-0.3l0-0.3
		c0.1-0.8,3.2-20.5,36.5-27.8l2.4-0.5c35.5-7.9,43.9-9.7,101.1-9.7c40.2,0,51,2.3,67.3,5.8c7.7,1.6,16.4,3.5,29.9,5.6
		c30.1,4.6,38.6,25.3,38.9,26.2l0.2,0.5l0,0.6C505.3,241.2,516.5,251.7,517.6,252.5z"/>
</g>
<g>
	<path fill="#1E1A17" d="M498.9,294.7c0,0-35.8-29-102.2,0.5c0,0-6.8-12.8,21.9-19.7c0,0,38.3-5.5,44.7-5.3
		c6.5,0.3,16.4,2.1,30.9,12.5C508.8,293.1,498.9,294.7,498.9,294.7z"/>
</g>
<g>
	<path fill="#665D57" d="M502.2,177.7l23-70.4c0,0,8.7,2.8,9.9-1.4c0.9-3.1-4.7-12.3-8.6-17.9c-24.1-34.5-83.8-95.1-198.8-77.5
		c0,0-75.4,5.5-127.2,90.5l47.7,60.1c0,0,31.1-17.2,134.8-18.5C486.8,141.4,496.4,173.3,502.2,177.7z"/>
	<path fill="#1E1A17" d="M502.7,179.3l-1.1-0.8c-0.9-0.6-1.7-1.7-2.8-3.1c-7-8.9-25.9-32.8-115.8-31.8c-53.3,0.7-87,5.6-105.9,9.7
		c-20.4,4.4-28.4,8.7-28.4,8.7l-0.7,0.4l-0.5-0.7l-48.1-60.6l0.4-0.6C226.5,56.4,259.9,34,283.1,23C308.3,11,327.4,9.5,327.6,9.5
		c13.6-2.1,27-3.1,39.9-3.1c89.8,0,138.6,50.8,159.8,81.1c3,4.3,9.9,14.8,8.7,18.8c-0.4,1.4-1.6,3-5.4,3c-1.8,0-3.7-0.4-4.8-0.7
		L502.7,179.3z M388.6,141.6c86,0,104.7,23.6,111.7,32.5c0.5,0.7,1,1.3,1.4,1.7l22.8-69.8l0.9,0.3c0,0,2.7,0.9,5.2,0.9
		c2,0,3.1-0.5,3.4-1.6c0.6-2-2.9-9.1-8.5-17.1c-20.9-30-69.3-80.2-158.2-80.2c-12.8,0-26.1,1.1-39.7,3.1c-0.3,0-19.1,1.5-44,13.3
		c-22.9,10.8-55.6,32.8-82.1,76.1l46.8,58.9c2.4-1.2,10.7-4.8,28-8.5c19-4.1,52.8-9.1,106.5-9.8
		C384.9,141.6,386.8,141.6,388.6,141.6z"/>
</g>
<g>
	<path fill="#665D57" d="M405.8,127.4c32.8,2.9,51.7,15.2,51.7,15.2s36.5,21.7,35,46.7c0,0,10.1-15.5-23-49c0,0-12.9-13.8-20.9-15.4
		"/>
	<path fill="#1E1A17" d="M491.3,193l0.2-3.8c1.4-24.1-34.2-45.6-34.5-45.8c-0.2-0.1-19.1-12.2-51.3-15.1l0.2-2
		c17.1,1.5,30.3,5.6,38.4,8.8c8.8,3.4,13.5,6.5,13.7,6.6c0.1,0,9.3,5.6,18.2,14.1c9.2,8.8,14.8,17.7,16.6,26.1
		c-0.2-7.4-4.3-20.9-24.1-40.9c-0.1-0.2-12.8-13.6-20.4-15.1l0.4-2c8.2,1.6,20.9,15.1,21.4,15.7c33.3,33.7,23.5,49.6,23.1,50.2
		L491.3,193z"/>
</g>
<g>
	<path fill="#665D57" d="M505.2,132.2c0,0,16.3,19.3,20.5,29.3c0,0,0.7-13.4-17.7-36.5c0,0,15.8,16.4,17.7,23.5
		c0,0-2.8-9.7-10.3-29.3c0,0,15.1,16.8,18.1,29.8c0,0-4.8-29.3-18.5-39.5c0,0,20.1,14.8,25.5,23.6c0,0-8.8-21.2-24.1-28.8
		c-15.3-7.6,20.3,5.8,27.4,14.9c0,0-6.4-17.6-29.9-29.8"/>
	<path fill="#1E1A17" d="M526.5,165.9l-1.7-4c-4.1-9.7-20.2-28.9-20.3-29l1.5-1.3c0.6,0.7,11.8,14,17.9,24.2
		c-1.5-5.9-5.6-16.3-16.6-30.1l1.5-1.3c0.4,0.5,7.8,8.2,13,15.3c-1.6-4.8-4-11.5-7.3-20l-1.9-5l3.6,4c0.4,0.5,8.1,9,13.5,18.6
		c-2.7-9.2-7.6-21.2-15.2-26.9l1.2-1.6c0.6,0.5,12,8.9,19.9,16.8c-4-6.7-10.6-15.9-19.5-20.3c-4.2-2.1-4.4-2.4-4.3-3.2l0.1-0.7
		l0.7-0.2c1.7-0.5,19,6.9,28,13.6c-3.6-6-11.6-16.5-27-24.5l0.9-1.8c23.6,12.2,30.1,29.6,30.4,30.3l2.2,5.9l-3.9-5
		c-3.3-4.2-13-9.5-20.6-12.9c12,9.1,18.7,25.1,19,25.8l-1.8,0.9c-2.9-4.8-10.4-11.5-16.5-16.4c2.7,4.2,5.1,9.4,7.2,15.6
		c2.9,8.6,4.1,16,4.2,16.1l-2,0.4c-2-8.6-9.5-19-14.1-24.8c5.1,13.7,7.5,21.6,8.1,23.4c0,0.1,0.1,0.3,0.1,0.4l-1.9,0.5
		c0,0,0-0.2-0.1-0.4c-0.8-2.4-3-5.7-5.6-9.1c8,14,7.7,21.9,7.7,22.3L526.5,165.9z"/>
</g>
<g>
	<path fill="#665D57" d="M488,126.8c0,0,19.5,10.4,26,40c0,0-0.3-16.9-7.2-32.4"/>
	<path fill="#1E1A17" d="M513,167c-6.3-28.8-25.3-39.2-25.5-39.3l0.9-1.8c0.7,0.4,15.4,8.4,23.4,30.2c-0.9-6.1-2.7-13.9-6-21.3
		l1.8-0.8c6.9,15.5,7.3,32.6,7.3,32.8L513,167z"/>
</g>
<g>
	<path fill="#665D57" d="M493,124.8c0,0,19.5,10.4,26,40c0,0-0.3-16.9-7.2-32.4"/>
	<path fill="#1E1A17" d="M518,165c-6.3-28.8-25.3-39.2-25.5-39.3l0.9-1.8c0.7,0.4,15.4,8.4,23.4,30.2c-0.9-6.1-2.7-13.9-6-21.3
		l1.8-0.8c6.9,15.5,7.3,32.6,7.3,32.8L518,165z"/>
</g>
<g>
	<path fill="#665D57" d="M485,138.8c0,0,19.5,10.4,26,40c0,0-0.3-16.9-7.2-32.4"/>
	<path fill="#1E1A17" d="M510,179c-6.3-28.8-25.3-39.2-25.5-39.3l0.9-1.8c0.7,0.4,15.4,8.4,23.4,30.2c-0.9-6.1-2.7-13.9-6-21.3
		l1.8-0.8c6.9,15.5,7.3,32.6,7.3,32.8L510,179z"/>
</g>
<g>
	<path fill="#1E1A17" d="M232.6,294.3c0,0,39.2-28.9,112.2,0.9c0,0,7.4-12.7-24.2-19.8c0,0-42-5.7-49.1-5.4c-7.1,0.2-18,2-33.9,12.4
		S232.6,294.3,232.6,294.3z"/>
</g>
<g>
	<path fill="#665D57" d="M289.5,150.3c0,0,97.5-9.3,154,18.2c0,0-39.3-28.1-119.5-31"/>
	<path fill="#1E1A17" d="M443.1,169.4c-55.6-27.1-152.5-18.2-153.5-18.1l-0.2-2c0.9-0.1,81.5-7.5,138.3,11.7
		c-18.2-8.5-52.8-20.7-103.8-22.5l0.1-2c41.6,1.5,72,9.9,90.1,16.6c19.7,7.3,29.5,14.2,29.9,14.5L443.1,169.4z"/>
</g>
<g>
	<path fill="#665D57" d="M345.6,114.9c0,0,85.9-14.4,164.4,14.1c0,0-92.1-21.2-158.3-5.3"/>
	<path fill="#1E1A17" d="M509.8,130c-0.9-0.2-92.6-21-157.8-5.3l-0.5-1.9c49.1-11.8,113.1-3.1,142.6,2.1
		c-72.8-21.2-147.5-9.1-148.3-9l-0.3-2c0.9-0.1,87.1-14.1,164.9,14.1L509.8,130z"/>
</g>
<g>
	<path fill="#665D57" d="M377,90.3c66.5-23.2,140.5,13.4,140.5,13.4C484.5,78.8,441,77,441,77s-38-4.5-93.5,5.1"/>
	<path fill="#1E1A17" d="M517.1,104.6c-0.7-0.4-74.4-36.1-139.7-13.4l-0.7-1.9c52-18.2,109.2,0.4,131.6,9.3
		C477.4,79.7,441.4,78,441,78c-0.5-0.1-38.6-4.4-93.3,5.1l-0.3-2c55-9.5,93.4-5.2,93.8-5.1c0.4,0,44.1,2.1,77,26.9L517.1,104.6z"/>
</g>
<g>
	<path fill="#1E1A17" d="M246.2,157.6l-2-2.2c0.7-0.7,18.6-16.6,58.1-26.3c65.7-16.2,138.9-1.9,188.7,13l-0.9,2.9
		c-49.4-14.8-122-29-187.1-13C264.2,141.5,246.4,157.4,246.2,157.6z"/>
</g>
<g>
	<path fill="#665D57" d="M231.5,134.6c0,0,44.5-60.1,192.5-57.6c0,0-140,8.8-182,66.7"/>
	<path fill="#1E1A17" d="M242.8,144.3l-1.6-1.2c21.9-30.2,70.4-46.8,107.3-55.4c20.9-4.9,40.6-7.9,54.5-9.6
		c-39.7,1-89.1,7.2-130.2,27.6c-29.1,14.4-40.4,29.4-40.6,29.5l-1.6-1.2c0.5-0.6,11.6-15.4,41.1-30C321,79.6,381.7,75.3,424,76l0,2
		C422.7,78.1,284.1,87.4,242.8,144.3z"/>
</g>
<g>
	<path fill="#665D57" d="M312.4,98c0,0,81-12.2,172.5,8.6c0,0-83.1-14.7-164,2.9"/>
	<path fill="#1E1A17" d="M321.1,110.5l-0.4-2c51.5-11.2,104.4-9.3,135.8-6.4c-78.3-12.7-143.2-3.2-143.9-3.1l-0.3-2
		c0.8-0.1,82.2-12,172.9,8.6l-0.4,2C483.9,107.4,400.9,93.1,321.1,110.5z"/>
</g>
<g>
	<path fill="#665D57" d="M371,139.9c43.5-3.7,67,3.7,67,3.7s47.5,14.8,56,64.3c0,0-4.5-43.7-42-64.3c0,0,1-8.2-78.3-14.7"/>
	<path fill="#1E1A17" d="M493,208.1c-8.3-48.3-54.8-63.4-55.3-63.5c-0.2-0.1-23.9-7.3-66.6-3.7l-0.2-2c43.2-3.7,67.1,3.7,67.4,3.7
		c0.4,0.1,27.3,8.8,44.4,34.1c-6.2-11.6-15.9-23.9-31.1-32.3l-0.6-0.3l0.1-0.5c-0.5-0.8-6.7-8-77.4-13.8l0.2-2
		c21.6,1.8,72.4,6.7,78.7,14.4c0.2,0.2,0.3,0.4,0.4,0.6c37.2,20.7,42.1,64.4,42.1,64.9L493,208.1z"/>
</g>
<g>
	<path fill="#1E1A17" d="M233.9,142.8l-2-2.2c0.8-0.7,19.4-17.3,55-28.6c32.8-10.4,86.7-18,157,5.1l-0.9,2.9
		c-69.5-22.8-122.7-15.4-155-5.1C253,125.9,234.1,142.6,233.9,142.8z"/>
</g>
<g>
	<path fill="#665D57" d="M327.5,143.7c0,0,100.5-2.4,153.5,31.7c0,0-16.1-19.7-51.3-26.1c0,0-26-10.8-77.7-11.8c0,0-20-0.7-73.5,6.2
		"/>
	<path fill="#1E1A17" d="M485.8,179.7l-5.3-3.4c-52.1-33.5-151.9-31.6-152.9-31.5l0-2c1,0,92.4-1.8,146.5,27.4
		c-7.6-6.3-22.2-15.8-44.5-19.8l-0.2-0.1c-0.3-0.1-26.5-10.7-77.3-11.7c-0.2,0-20.6-0.6-73.4,6.2l-0.3-2c53-6.8,73.5-6.2,73.7-6.2
		c26.8,0.5,46.5,3.7,58.4,6.3c12.2,2.7,18.6,5.2,19.5,5.5c18.3,3.3,31.4,10.3,39.1,15.6c8.4,5.7,12.5,10.6,12.7,10.8L485.8,179.7z"
		/>
</g>
<g>
	<path fill="#665D57" d="M238.6,148.8c0,0,59.9-44.3,144.4-39.3c0,0-81.2,5.5-127.2,38"/>
	<path fill="#1E1A17" d="M239.2,149.6L238,148c0.6-0.4,61.2-44.5,145.1-39.5l0,2c-0.8,0.1-81.5,5.9-126.7,37.8l-1.2-1.6
		c33.7-23.8,86.7-33.2,112.5-36.6C292.5,110.8,239.8,149.2,239.2,149.6z"/>
</g>
<g>
	<path fill="#665D57" d="M214,94.5c0,0,44.7-60,131.6-58.5c0,0,75.4,5.2,135.4,23.6c0,0-132.9-26.6-180.5-12.6"/>
	<path fill="#1E1A17" d="M214.8,95.1l-1.6-1.2c0.1-0.2,11.5-15.3,33.5-30c20.2-13.6,53.8-29.6,99-28.9c0.8,0.1,76.3,5.4,135.7,23.6
		l-0.5,1.9c-0.3-0.1-33.6-6.7-72.3-11.5c-51.1-6.4-88.4-6.8-107.7-1.1l-0.6-1.9c19.9-5.8,56.4-5.5,108.5,1c19,2.4,36.7,5.2,49.9,7.4
		C404.4,41.2,346.2,37,345.5,37c-44.6-0.8-77.8,15.1-97.8,28.5C226.1,80.1,214.9,94.9,214.8,95.1z"/>
</g>
<g>
	<path fill="#665D57" d="M216.6,123.7c0,0,21.4-111.2,282.9-40.7c0,0-118.8-29.5-184.5-13.5c-57.5,14-75.8,17.9-92.2,60.2"/>
	<path fill="#1E1A17" d="M223.7,130.1l-1.9-0.7c16.4-42.2,35-46.7,90.5-60.2l2.4-0.6c37-9,91.4-3.5,131.6,3
		C376.7,57.6,299.4,52.9,251.2,83c-28.9,18-33.6,40.7-33.6,40.9l-2-0.4c0.2-1,4.9-23.7,34.4-42.2c21.2-13.3,49.8-20.8,84.8-22.4
		c44.9-2.1,100.4,5.7,164.9,23.1l-0.5,1.9c-1.2-0.3-119.3-29.3-184-13.5l-2.4,0.6C256.7,84.7,239.7,88.9,223.7,130.1z"/>
</g>
<g>
	<path fill="#1E1A17" d="M517.1,116.4c-0.6-0.3-61.2-25.9-98.5-23.4l-0.1-2c25.7-1.7,62.2,9.7,83,17.2c-45.7-21.9-82.6-21.7-83-21.7
		l0-2c0.4,0,46.4-0.1,99.5,30.1L517.1,116.4z"/>
</g>
<g>
	<path fill="#665D57" stroke="#1E1A17" stroke-width="2" stroke-miterlimit="10" d="M416,85.5"/>
</g>
<g>
	<path fill="#756B66" d="M50.7,432.6"/>
</g>
<g>
	
		<rect x="185.4" y="129.8" transform="matrix(0.6318 0.7751 -0.7751 0.6318 184.4204 -125.6699)" fill="#473F3A" width="78.2" height="3"/>
</g>
<g>
	<path fill="#776F6A" d="M195.7,135.4c-2,0-2,3.1,0,3.1S197.7,135.4,195.7,135.4z"/>
</g>
<g>
	<path fill="#776F6A" d="M198.8,125.7c-2,0-2,3.1,0,3.1S200.8,125.7,198.8,125.7z"/>
</g>
<g>
	<path fill="#776F6A" d="M201.8,115.9c-2,0-2,3.1,0,3.1S203.8,115.9,201.8,115.9z"/>
</g>
<g>
	<path fill="#776F6A" d="M204.6,132.1c-2,0-2,3.1,0,3.1S206.6,132.1,204.6,132.1z"/>
</g>
<g>
	<path fill="#776F6A" d="M207.9,123.4c-2,0-2,3.1,0,3.1S209.9,123.4,207.9,123.4z"/>
</g>
<g>
	<path fill="#776F6A" d="M201.8,142.3c-2,0-2,3.1,0,3.1S203.8,142.3,201.8,142.3z"/>
</g>
<g>
	<path fill="#776F6A" d="M207.7,148.4c-2,0-2,3.1,0,3.1S209.7,148.4,207.7,148.4z"/>
</g>
<g>
	<path fill="#776F6A" d="M210.8,138.7c-2,0-2,3.1,0,3.1S212.8,138.7,210.8,138.7z"/>
</g>
<g>
	<path fill="#776F6A" d="M213.8,128.9c-2,0-2,3.1,0,3.1S215.8,128.9,213.8,128.9"/>
</g>
<g>
	<path fill="#776F6A" d="M216.6,145.1c-2,0-2,3.1,0,3.1S218.6,145.1,216.6,145.1z"/>
</g>
<g>
	<path fill="#776F6A" d="M219.9,136.4c-2,0-2,3.1,0,3.1S221.9,136.4,219.9,136.4z"/>
</g>
<g>
	<path fill="#776F6A" d="M213.8,155.3c-2,0-2,3.1,0,3.1S215.8,155.3,213.8,155.3z"/>
</g>
<g>
	<path fill="#776F6A" d="M220.7,163.4c-2,0-2,3.1,0,3.1S222.7,163.4,220.7,163.4z"/>
</g>
<g>
	<path fill="#776F6A" d="M223.8,153.7c-2,0-2,3.1,0,3.1S225.8,153.7,223.8,153.7z"/>
</g>
<g>
	<path fill="#776F6A" d="M226.8,143.9c-2,0-2,3.1,0,3.1S228.8,143.9,226.8,143.9"/>
</g>
<g>
	<path fill="#776F6A" d="M229.6,160.1c-2,0-2,3.1,0,3.1S231.6,160.1,229.6,160.1z"/>
</g>
<g>
	<path fill="#776F6A" d="M232.9,151.4c-2,0-2,3.1,0,3.1S234.9,151.4,232.9,151.4z"/>
</g>
<g>
	<path fill="#776F6A" d="M226.8,170.3c-2,0-2,3.1,0,3.1S228.8,170.3,226.8,170.3z"/>
</g>
<g>
	<path fill="#776F6A" d="M238.6,159.1c-2,0-2,3.1,0,3.1S240.6,159.1,238.6,159.1z"/>
</g>
<g>
	<path fill="#776F6A" d="M190.7,144.4c-2,0-2,3.1,0,3.1S192.7,144.4,190.7,144.4z"/>
</g>
<g>
	<path fill="#776F6A" d="M196.8,151.3c-2,0-2,3.1,0,3.1S198.8,151.3,196.8,151.3z"/>
</g>
<g>
	<path fill="#776F6A" d="M202.7,157.4c-2,0-2,3.1,0,3.1S204.7,157.4,202.7,157.4z"/>
</g>
<g>
	<path fill="#776F6A" d="M208.8,164.3c-2,0-2,3.1,0,3.1S210.8,164.3,208.8,164.3z"/>
</g>
<g>
	<path fill="#776F6A" d="M215.7,172.4c-2,0-2,3.1,0,3.1S217.7,172.4,215.7,172.4z"/>
</g>
<g>
	<path fill="#776F6A" d="M221.8,179.3c-2,0-2,3.1,0,3.1S223.8,179.3,221.8,179.3z"/>
</g>
<g>
	<path fill="#665D57" d="M240.1,117.4c0,0,56.4-37.6,110.9-40.5c0,0-48.8-5.2-113.9,32.2"/>
	<path fill="#1E1A17" d="M240.7,118.2l-1.1-1.7c0.5-0.3,44.2-29.2,91.5-38.2c-20.1,1.9-53.9,8.9-93.4,31.6l-1-1.7
		c64.6-37.1,114-32.4,114.5-32.3l-0.1,2C297.5,80.8,241.2,117.9,240.7,118.2z"/>
</g>
<g>
	<path fill="#665D57" d="M333.5,71.5c0,0,52.5-10,147.5-2c0,0-75.4-18.9-157.9-1.7"/>
	<path fill="#1E1A17" d="M333.7,72.5l-0.4-2c0.1,0,13.5-2.5,38.3-4c20.2-1.2,51.9-2,92.9,0.8c-26.6-4.5-82.3-10.7-141.1,1.5l-0.4-2
		c81.8-17,157.6,1.5,158.3,1.7l-0.3,2c-49-4.1-86.4-3.4-109.2-2C347.1,70,333.8,72.5,333.7,72.5z"/>
</g>
<g>
	<path fill="#665D57" d="M458.1,120.6c0,0,44.4,10.9,59.2,30.9c0,0-37.8-25.3-98.8-31.4"/>
	<path fill="#1E1A17" d="M521.5,155.5l-4.8-3.2c-0.1-0.1-9.6-6.4-26.4-13.3c-15.5-6.4-40.6-14.8-71.9-17.9l0.2-2
		c31.6,3.2,56.9,11.6,72.6,18.1c9.4,3.9,16.5,7.6,21.1,10.1c-17.3-16.5-53.9-25.6-54.3-25.7l0.5-1.9c0.1,0,11.3,2.8,24.2,8
		c17.4,7,29.3,14.8,35.6,23.3L521.5,155.5z"/>
</g>
<g>
	<path fill="#665D57" d="M476.8,148.2c0,0,20,13.7,22.7,22.1c0,0-1.5-14.8-18.5-29.5"/>
	<path fill="#1E1A17" d="M501.5,179.6l-2.9-9c-2.6-8-22.1-21.4-22.3-21.6l1.1-1.7c0.7,0.4,12.8,8.8,19.4,16.6
		c-2.1-5.6-6.7-14-16.4-22.4l1.3-1.5c17.1,14.8,18.8,29.5,18.8,30.2L501.5,179.6z"/>
</g>
<g>
	<path fill="#665D57" d="M456.1,115.5c0,0,45.4,16.5,53.9,40c0,0-5-35.6-66.5-54.5"/>
	<path fill="#1E1A17" d="M512.3,164.9l-3.3-9c-8.2-22.8-52.9-39.2-53.3-39.4l0.7-1.9c0.1,0,11.6,4.2,23.9,11.3
		c11,6.3,19.2,12.7,24.6,19.2c-6.4-11.9-22.4-31-61.7-43l0.6-1.9c17.7,5.4,41.9,15.9,56.8,34.7c9,11.3,10.3,20.3,10.4,20.6
		L512.3,164.9z"/>
</g>
<g>
	<path fill="#665D57" d="M416,109.1c0,0,68.1-5.5,104.6,22.2c0,0-5.1-29.3-104.6-29.3"/>
	<path fill="#1E1A17" d="M522,133.6l-2-1.5c-35.8-27.2-103.2-22.1-103.9-22l-0.2-2c0.7-0.1,65.1-4.9,102.1,20.1
		c-5-7.5-25-25.2-102-25.2v-2c99.2,0,105.4,28.9,105.6,30.1L522,133.6z"/>
</g>
<g>
	<path fill="#665D57" d="M449.9,43.8c44.1,6.9,77.4,41.7,77.4,41.7C482,32.8,448,31.3,448,31.3s-21.3-2.4-58-1.4"/>
	<path fill="#1E1A17" d="M526.6,86.2c-0.3-0.3-33.6-34.6-76.8-41.4l0.3-2c27,4.2,50.2,19,64.1,29.9C475.9,34,448.3,32.3,448,32.3
		c-0.3,0-21.7-2.4-57.9-1.4l-0.1-2c36.4-1,57.9,1.4,58.1,1.4c1.3,0.1,34.9,2.1,79.9,54.5L526.6,86.2z"/>
</g>
<g>
	<path fill="#665D57" d="M293.6,65.2c0,0,45.4-17.7,117.4-10.2c0,0-66.3-1.1-112,16.5"/>
	<path fill="#1E1A17" d="M299.4,72.4l-0.7-1.9c29.6-11.4,68.2-15,91.6-16.1c-27.5-1.2-49.8,1.2-64.7,3.8c-20,3.4-31.5,7.8-31.6,7.9
		l-0.7-1.9c0.1,0,11.7-4.5,31.9-8c18.6-3.2,48.7-6.2,86-2.3l-0.1,2c-0.2,0-16.8-0.3-38.8,1.6C351.9,59.4,322.9,63.4,299.4,72.4z"/>
</g>
<g>
	<path fill="#665D57" d="M472,71.5"/>
</g>
<g>
	<path fill="#1E1A17" d="M206.9,97.7l-1.6-1.2c0.1-0.2,15.3-20.5,42.5-40.3C273,38,314.1,16.5,366.5,17.5l0,2
		c-51.9-1-92.5,20.3-117.4,38.3C222,77.4,207.1,97.5,206.9,97.7z"/>
</g>
<g>
	<path fill="#1E1A17" d="M218.9,101.1l-1.6-1.3c0.4-0.5,10.5-12.8,34.4-25.2c20.7-10.8,55.7-23.6,107.7-25.4
		c-7.3-0.8-18.3-1.3-32.1,0.1c-24.2,2.5-62.4,11.7-107,41.3l-1.1-1.7c44.9-29.9,83.5-39.1,108-41.7c26.6-2.7,42.3,1.5,42.9,1.7
		l6.8,1.9l-7.1,0c-57.4,0.4-95.5,14-117.3,25.4C229.1,88.7,219,101,218.9,101.1z"/>
</g>
<g>
	<path fill="#1E1A17" d="M337.7,47l-0.5-1.9c42.8-10,87.9-8.2,109.6-6.4c-75.4-17.9-133.5,0.6-134.1,0.8l-0.6-1.9
		c0.6-0.2,65.8-21,147.9,2.5l-0.4,2C458.9,41.9,396.1,33.3,337.7,47z"/>
</g>
<g>
	<path fill="#1E1A17" d="M531.5,109.7c-0.4-0.5-41.4-54.6-100.6-57.6l0.1-2c44.7,2.3,79.2,33.3,94.1,49.1
		c-18.2-27.4-40.6-41.3-57-48.3c-19.9-8.5-35.5-8.9-35.6-8.9l-0.1,0c-0.1,0-14.1-2.2-44.3-0.5l-0.1-2c29.4-1.6,43.5,0.3,44.6,0.5
		c1.2,0,16.7,0.7,36.2,9c18.7,8,45,24.8,64.4,59.6L531.5,109.7z"/>
</g>
<g>
	<path fill="#1E1A17" d="M534.4,126.4l-4.2-5.7c-0.3-0.4-28.6-37.8-72.7-48.2l0.5-1.9c34.5,8.1,59.5,32.5,69.3,43.5
		c-14.7-28.5-48.9-41.4-49.3-41.6l0.7-1.9c0.4,0.1,40.6,15.3,53.3,49.2L534.4,126.4z"/>
</g>
<g>
	<path fill="#1E1A17" d="M358.5,34.3l-0.8-1.9c26.6-10.8,67.2-7.9,91.1-4.8c-72.8-16.9-112.2,2.8-112.7,3l-0.9-1.8
		c0.5-0.2,47.4-23.7,132.9,1.8l-0.5,1.9C467,32.5,397.2,18.5,358.5,34.3z"/>
</g>
<g>
	<path fill="#665D57" d="M232.9,65.2c0,0,27.7-52.6,112.7-62.2c0,0-57.9,11.2-88.3,50.1"/>
	<path fill="#1E1A17" d="M233.8,65.7l-1.8-0.9c0.3-0.5,7.2-13.5,24.7-27.8C272.9,23.7,301.3,7,345.5,2l0.3,2
		c-0.6,0.1-57.9,11.6-87.7,49.7l-1.6-1.2c20-25.7,52.3-39.4,71.9-45.8C258.3,20.6,234,65.2,233.8,65.7z"/>
</g>
<g>
	<path fill="#665D57" d="M302.7,19.8c0,0,46.7-26.8,149-1.3c0,0-70-13.4-135,5.9"/>
	<path fill="#1E1A17" d="M317,25.4l-0.6-1.9c42.3-12.6,87.1-11.2,113.1-8.8c-85.7-16.5-125.9,5.8-126.3,6l-1-1.7
		c0.5-0.3,12.1-6.8,36.5-10.3c22.4-3.2,60.2-4.3,113.2,8.9l-0.4,2C450.8,19.3,381,6.4,317,25.4z"/>
</g>
<g>
	<g>
		<defs>
			<ellipse id="SVGID_1_" cx="299.2" cy="308.7" rx="13.6" ry="13.5"/>
		</defs>
		<clipPath id="SVGID_2_">
			<use xlink:href="#SVGID_1_"  overflow="visible"/>
		</clipPath>
		<rect x="285.6" y="313.8" clip-path="url(#SVGID_2_)" fill="#7D8783" width="27.2" height="8.5"/>
		<rect x="285.6" y="313" clip-path="url(#SVGID_2_)" fill="#7D8783" width="27.2" height="0.8"/>
		<rect x="285.6" y="312.2" clip-path="url(#SVGID_2_)" fill="#7C8783" width="27.2" height="0.8"/>
		<rect x="285.6" y="311.4" clip-path="url(#SVGID_2_)" fill="#7B8683" width="27.2" height="0.8"/>
		<rect x="285.6" y="310.6" clip-path="url(#SVGID_2_)" fill="#7A8683" width="27.2" height="0.8"/>
		<rect x="285.6" y="309.9" clip-path="url(#SVGID_2_)" fill="#798683" width="27.2" height="0.8"/>
		<rect x="285.6" y="309.1" clip-path="url(#SVGID_2_)" fill="#788583" width="27.2" height="0.8"/>
		<rect x="285.6" y="308.3" clip-path="url(#SVGID_2_)" fill="#778583" width="27.2" height="0.8"/>
		<rect x="285.6" y="307.5" clip-path="url(#SVGID_2_)" fill="#768583" width="27.2" height="0.8"/>
		<rect x="285.6" y="306.8" clip-path="url(#SVGID_2_)" fill="#758483" width="27.2" height="0.8"/>
		<rect x="285.6" y="306" clip-path="url(#SVGID_2_)" fill="#748483" width="27.2" height="0.8"/>
		<rect x="285.6" y="305.2" clip-path="url(#SVGID_2_)" fill="#738483" width="27.2" height="0.8"/>
		<rect x="285.6" y="304.4" clip-path="url(#SVGID_2_)" fill="#728383" width="27.2" height="0.8"/>
		<rect x="285.6" y="303.7" clip-path="url(#SVGID_2_)" fill="#718383" width="27.2" height="0.8"/>
		<rect x="285.6" y="302.9" clip-path="url(#SVGID_2_)" fill="#708383" width="27.2" height="0.8"/>
		<rect x="285.6" y="302.1" clip-path="url(#SVGID_2_)" fill="#6E8283" width="27.2" height="0.8"/>
		<rect x="285.6" y="301.3" clip-path="url(#SVGID_2_)" fill="#6D8283" width="27.2" height="0.8"/>
		<rect x="285.6" y="300.5" clip-path="url(#SVGID_2_)" fill="#6C8283" width="27.2" height="0.8"/>
		<rect x="285.6" y="299.8" clip-path="url(#SVGID_2_)" fill="#6B8183" width="27.2" height="0.8"/>
		<rect x="285.6" y="299" clip-path="url(#SVGID_2_)" fill="#6A8183" width="27.2" height="0.8"/>
		<rect x="285.6" y="298.2" clip-path="url(#SVGID_2_)" fill="#698183" width="27.2" height="0.8"/>
		<rect x="285.6" y="297.4" clip-path="url(#SVGID_2_)" fill="#688083" width="27.2" height="0.8"/>
		<rect x="285.6" y="296.7" clip-path="url(#SVGID_2_)" fill="#678083" width="27.2" height="0.8"/>
		<rect x="285.6" y="295.9" clip-path="url(#SVGID_2_)" fill="#668083" width="27.2" height="0.8"/>
		<rect x="285.6" y="295.2" clip-path="url(#SVGID_2_)" fill="#657F83" width="27.2" height="0.7"/>
	</g>
</g>
<g>
	<ellipse fill="#1E1A17" cx="299.8" cy="308.7" rx="7.2" ry="7.2"/>
</g>
<g>
	<path fill="#1E1A17" d="M257.5,314.8c0,0,13.5-14.6,42.3-14.6s35.2,16.2,35.2,16.2s-2.3-22.8-34.5-22.8S257.5,314.8,257.5,314.8z"
		/>
</g>
<g>
	<g>
		<defs>
			<ellipse id="SVGID_3_" cx="443.3" cy="308.7" rx="13.6" ry="13.5"/>
		</defs>
		<clipPath id="SVGID_4_">
			<use xlink:href="#SVGID_3_"  overflow="visible"/>
		</clipPath>
		<rect x="429.7" y="313.8" clip-path="url(#SVGID_4_)" fill="#7D8783" width="27.2" height="8.5"/>
		<rect x="429.7" y="313" clip-path="url(#SVGID_4_)" fill="#7D8783" width="27.2" height="0.8"/>
		<rect x="429.7" y="312.2" clip-path="url(#SVGID_4_)" fill="#7C8783" width="27.2" height="0.8"/>
		<rect x="429.7" y="311.4" clip-path="url(#SVGID_4_)" fill="#7B8683" width="27.2" height="0.8"/>
		<rect x="429.7" y="310.6" clip-path="url(#SVGID_4_)" fill="#7A8683" width="27.2" height="0.8"/>
		<rect x="429.7" y="309.9" clip-path="url(#SVGID_4_)" fill="#798683" width="27.2" height="0.8"/>
		<rect x="429.7" y="309.1" clip-path="url(#SVGID_4_)" fill="#788583" width="27.2" height="0.8"/>
		<rect x="429.7" y="308.3" clip-path="url(#SVGID_4_)" fill="#778583" width="27.2" height="0.8"/>
		<rect x="429.7" y="307.5" clip-path="url(#SVGID_4_)" fill="#768583" width="27.2" height="0.8"/>
		<rect x="429.7" y="306.8" clip-path="url(#SVGID_4_)" fill="#758483" width="27.2" height="0.8"/>
		<rect x="429.7" y="306" clip-path="url(#SVGID_4_)" fill="#748483" width="27.2" height="0.8"/>
		<rect x="429.7" y="305.2" clip-path="url(#SVGID_4_)" fill="#738483" width="27.2" height="0.8"/>
		<rect x="429.7" y="304.4" clip-path="url(#SVGID_4_)" fill="#728383" width="27.2" height="0.8"/>
		<rect x="429.7" y="303.7" clip-path="url(#SVGID_4_)" fill="#718383" width="27.2" height="0.8"/>
		<rect x="429.7" y="302.9" clip-path="url(#SVGID_4_)" fill="#708383" width="27.2" height="0.8"/>
		<rect x="429.7" y="302.1" clip-path="url(#SVGID_4_)" fill="#6E8283" width="27.2" height="0.8"/>
		<rect x="429.7" y="301.3" clip-path="url(#SVGID_4_)" fill="#6D8283" width="27.2" height="0.8"/>
		<rect x="429.7" y="300.5" clip-path="url(#SVGID_4_)" fill="#6C8283" width="27.2" height="0.8"/>
		<rect x="429.7" y="299.8" clip-path="url(#SVGID_4_)" fill="#6B8183" width="27.2" height="0.8"/>
		<rect x="429.7" y="299" clip-path="url(#SVGID_4_)" fill="#6A8183" width="27.2" height="0.8"/>
		<rect x="429.7" y="298.2" clip-path="url(#SVGID_4_)" fill="#698183" width="27.2" height="0.8"/>
		<rect x="429.7" y="297.4" clip-path="url(#SVGID_4_)" fill="#688083" width="27.2" height="0.8"/>
		<rect x="429.7" y="296.7" clip-path="url(#SVGID_4_)" fill="#678083" width="27.2" height="0.8"/>
		<rect x="429.7" y="295.9" clip-path="url(#SVGID_4_)" fill="#668083" width="27.2" height="0.8"/>
		<rect x="429.7" y="295.2" clip-path="url(#SVGID_4_)" fill="#657F83" width="27.2" height="0.7"/>
	</g>
</g>
<g>
	<ellipse fill="#1E1A17" cx="442.7" cy="308.7" rx="7.2" ry="7.2"/>
</g>
<g>
	<path fill="#1E1A17" d="M485,314.8c0,0-13.5-14.6-42.3-14.6s-35.2,16.2-35.2,16.2s2.3-22.8,34.5-22.8S485,314.8,485,314.8z"/>
</g>
<g>
	<path fill="#1E1A17" d="M370.8,457.3c0,0-24.6,2.1-64-8.8c0,0,12.6,20.6,64,20.6c51.3,0,64-20.6,64-20.6
		C395.4,459.3,370.8,457.3,370.8,457.3z"/>
</g>
<g>
	<path fill="#1E1A17" d="M368.8,502.2c22.1,0,31-5.8,31-5.8c-12.8,4.5-29.9,3.9-31,3.8l0,0l0,0l0,0l0,0c-1.1,0-18.2,0.7-31-3.8
		C337.8,496.4,346.7,502.2,368.8,502.2L368.8,502.2L368.8,502.2L368.8,502.2L368.8,502.2z"/>
</g>
<g>
	<path fill="#776F6A" d="M197.8,166.3c-2,0-2,3.1,0,3.1S199.8,166.3,197.8,166.3z"/>
</g>
<g>
	<path fill="#776F6A" d="M203.7,172.4c-2,0-2,3.1,0,3.1S205.7,172.4,203.7,172.4z"/>
</g>
<g>
	<path fill="#665D57" d="M491.2,100.5c0,0,33.5,16,39.8,37c0,0,0.9-14-34-41.7"/>
	<path fill="#1E1A17" d="M531.6,143.1l-1.6-5.3c-6.1-20.3-38.9-36.2-39.3-36.4l0.9-1.8c0.1,0,8.6,4.1,17.7,10.7
		c4.6,3.3,8.6,6.7,11.8,10c-5-6.2-12.7-14.2-24.8-23.8l1.2-1.6c34.9,27.7,34.4,42,34.4,42.5L531.6,143.1z"/>
</g>
<g>
	<path fill="#776F6A" d="M209.8,179.3c-2,0-2,3.1,0,3.1S211.8,179.3,209.8,179.3z"/>
</g>
<g>
	<path fill="#776F6A" d="M216.7,187.4c-2,0-2,3.1,0,3.1S218.7,187.4,216.7,187.4z"/>
</g>
<g>
	<path fill="#776F6A" d="M222.8,194.3c-2,0-2,3.1,0,3.1S224.8,194.3,222.8,194.3z"/>
</g>
<g>
	<path fill="#776F6A" d="M191.7,159.4c-2,0-2,3.1,0,3.1S193.7,159.4,191.7,159.4z"/>
</g>
<g>
	<path fill="#776F6A" d="M196.8,179.3c-2,0-2,3.1,0,3.1S198.8,179.3,196.8,179.3z"/>
</g>
<g>
	<path fill="#776F6A" d="M202.7,185.4c-2,0-2,3.1,0,3.1S204.7,185.4,202.7,185.4z"/>
</g>
<g>
	<path fill="#776F6A" d="M208.8,192.3c-2,0-2,3.1,0,3.1S210.8,192.3,208.8,192.3z"/>
</g>
<g>
	<path fill="#776F6A" d="M215.7,200.4c-2,0-2,3.1,0,3.1S217.7,200.4,215.7,200.4z"/>
</g>
<g>
	<path fill="#776F6A" d="M221.8,207.3c-2,0-2,3.1,0,3.1S223.8,207.3,221.8,207.3z"/>
</g>
<g>
	<path fill="#776F6A" d="M190.7,172.4c-2,0-2,3.1,0,3.1S192.7,172.4,190.7,172.4z"/>
</g>
<g>
	<path fill="#776F6A" d="M195.8,191.3c-2,0-2,3.1,0,3.1S197.8,191.3,195.8,191.3z"/>
</g>
<g>
	<path fill="#776F6A" d="M201.7,197.4c-2,0-2,3.1,0,3.1S203.7,197.4,201.7,197.4z"/>
</g>
<g>
	<path fill="#776F6A" d="M207.8,204.3c-2,0-2,3.1,0,3.1S209.8,204.3,207.8,204.3z"/>
</g>
<g>
	<path fill="#776F6A" d="M214.7,212.4c-2,0-2,3.1,0,3.1S216.7,212.4,214.7,212.4z"/>
</g>
<g>
	<path fill="#776F6A" d="M220.8,219.3c-2,0-2,3.1,0,3.1S222.8,219.3,220.8,219.3z"/>
</g>
<g>
	<path fill="#776F6A" d="M189.7,184.4c-2,0-2,3.1,0,3.1S191.7,184.4,189.7,184.4z"/>
</g>
<g>
	<path fill="#776F6A" d="M194.8,203.3c-2,0-2,3.1,0,3.1S196.8,203.3,194.8,203.3z"/>
</g>
<g>
	<path fill="#776F6A" d="M200.7,209.4c-2,0-2,3.1,0,3.1S202.7,209.4,200.7,209.4z"/>
</g>
<g>
	<path fill="#776F6A" d="M206.8,216.3c-2,0-2,3.1,0,3.1S208.8,216.3,206.8,216.3z"/>
</g>
<g>
	<path fill="#776F6A" d="M213.7,224.4c-2,0-2,3.1,0,3.1S215.7,224.4,213.7,224.4z"/>
</g>
<g>
	<path fill="#776F6A" d="M219.8,231.3c-2,0-2,3.1,0,3.1S221.8,231.3,219.8,231.3z"/>
</g>
<g>
	<path fill="#776F6A" d="M188.7,196.4c-2,0-2,3.1,0,3.1S190.7,196.4,188.7,196.4z"/>
</g>
<g>
	<path fill="#776F6A" d="M190.8,213.3c-2,0-2,3.1,0,3.1S192.8,213.3,190.8,213.3z"/>
</g>
<g>
	<path fill="#776F6A" d="M196.7,219.4c-2,0-2,3.1,0,3.1S198.7,219.4,196.7,219.4z"/>
</g>
<g>
	<path fill="#776F6A" d="M202.8,226.3c-2,0-2,3.1,0,3.1S204.8,226.3,202.8,226.3z"/>
</g>
<g>
	<path fill="#776F6A" d="M209.7,234.4c-2,0-2,3.1,0,3.1S211.7,234.4,209.7,234.4z"/>
</g>
<g>
	<path fill="#776F6A" d="M215.8,241.3c-2,0-2,3.1,0,3.1S217.8,241.3,215.8,241.3z"/>
</g>
<g>
	<path fill="#776F6A" d="M191.7,226.4c-2,0-2,3.1,0,3.1S193.7,226.4,191.7,226.4z"/>
</g>
<g>
	<path fill="#776F6A" d="M197.8,233.3c-2,0-2,3.1,0,3.1S199.8,233.3,197.8,233.3z"/>
</g>
<g>
	<path fill="#776F6A" d="M204.7,241.4c-2,0-2,3.1,0,3.1S206.7,241.4,204.7,241.4z"/>
</g>
<g>
	<path fill="#776F6A" d="M210.8,248.3c-2,0-2,3.1,0,3.1S212.8,248.3,210.8,248.3z"/>
</g>
<g>
	<path fill="#776F6A" d="M191.8,241.3c-2,0-2,3.1,0,3.1S193.8,241.3,191.8,241.3z"/>
</g>
<g>
	<path fill="#776F6A" d="M197.7,247.4c-2,0-2,3.1,0,3.1S199.7,247.4,197.7,247.4z"/>
</g>
<g>
	<path fill="#776F6A" d="M203.8,254.3c-2,0-2,3.1,0,3.1S205.8,254.3,203.8,254.3z"/>
</g>
<g>
	<path fill="#776F6A" d="M193.8,256.3c-2,0-2,3.1,0,3.1S195.8,256.3,193.8,256.3z"/>
</g>
<g>
	<path fill="#776F6A" d="M199.7,262.4c-2,0-2,3.1,0,3.1S201.7,262.4,199.7,262.4z"/>
</g>
<g>
	<path fill="#776F6A" d="M197.8,272.3c-2,0-2,3.1,0,3.1S199.8,272.3,197.8,272.3z"/>
</g>
<g>
	<path fill="#665D57" d="M494.3,153c0,0,13,18.7,10.9,36.4c0,0,8.8-19.1-10.3-49.5"/>
	<path fill="#1E1A17" d="M503.5,195.6l0.7-6.3c2-17.1-10.6-35.5-10.7-35.7l1.6-1.1c0.4,0.6,9.1,13.2,11,27.7c0.6-8.3-1-22.1-12-39.7
		l1.7-1.1c19.2,30.5,10.7,49.7,10.4,50.5L503.5,195.6z"/>
</g>
</svg>
